<?xml version="1.0" encoding="iso-8859-1"?>
<!-- Generator: Adobe Illustrator 24.2.0, SVG Export Plug-In . SVG Version: 6.00 Build 0)  -->
<svg version="1.1" id="&#x30EC;&#x30A4;&#x30E4;&#x30FC;_1"
	 xmlns="http://www.w3.org/2000/svg" xmlns:xlink="http://www.w3.org/1999/xlink" x="0px" y="0px" viewBox="0 0 48 48"
	 style="enable-background:new 0 0 48 48;" xml:space="preserve">
<path style="fill:#FFFFFF;" d="M31.042,22.137c-0.421-0.619-1.607-0.592-1.607-0.592h-2.976l3.642-8.072
	c0,0,0.347-0.854-0.629-1.322c-0.977-0.468-1.787,0.302-1.787,0.302s-9.472,10.525-10.26,11.248
	c-0.789,0.722-0.886,1.542-0.465,2.162c0.421,0.619,1.607,0.592,1.607,0.592h2.976l-3.642,8.072c0,0-0.347,0.854,0.629,1.322
	c0.977,0.468,1.787-0.303,1.787-0.303s9.471-10.525,10.26-11.247C31.365,23.576,31.462,22.757,31.042,22.137z"/>
</svg>
