<svg height="108" viewBox="0 0 57.75 108" width="57.75" xmlns="http://www.w3.org/2000/svg"><path d="m6027.21 789.786a.785.785 0 1 1 .78.79.786.786 0 0 1 -.78-.79zm0 7.111a.785.785 0 1 1 .78.79.786.786 0 0 1 -.78-.787zm0 7.111a.785.785 0 1 1 .78.79.786.786 0 0 1 -.78-.79zm0 7.111a.785.785 0 1 1 .78.79.786.786 0 0 1 -.78-.79zm7.84-20.543a.79.79 0 1 1 .78-.79.788.788 0 0 1 -.78.79zm0 7.111a.79.79 0 1 1 .78-.79.787.787 0 0 1 -.78.79zm0 7.111a.79.79 0 1 1 .78-.79.787.787 0 0 1 -.78.792zm0 7.111a.79.79 0 1 1 .78-.79.787.787 0 0 1 -.78.79zm-14.89-22.123a.78.78 0 1 1 .78.79.786.786 0 0 1 -.78-.79zm0 7.111a.78.78 0 1 1 .78.79.786.786 0 0 1 -.78-.787zm0 7.111a.78.78 0 1 1 .78.79.786.786 0 0 1 -.78-.79zm0 7.111a.78.78 0 1 1 .78.79.786.786 0 0 1 -.78-.79zm-7.06-21.333a.794.794 0 0 1 .79-.79.79.79 0 0 1 0 1.58.794.794 0 0 1 -.79-.79zm0 7.111a.794.794 0 0 1 .79-.79.79.79 0 1 1 -.79.793zm0 7.111a.794.794 0 0 1 .79-.79.79.79 0 1 1 -.79.79zm0 7.111a.794.794 0 0 1 .79-.79.79.79 0 1 1 -.79.79zm-7.05-21.333a.785.785 0 1 1 .79.79.788.788 0 0 1 -.79-.79zm0 7.111a.785.785 0 1 1 .79.79.788.788 0 0 1 -.79-.787zm0 7.111a.785.785 0 1 1 .79.79.788.788 0 0 1 -.79-.79zm0 7.111a.785.785 0 1 1 .79.79.788.788 0 0 1 -.79-.79zm-7.05-21.333a.785.785 0 1 1 .78.79.786.786 0 0 1 -.78-.79zm0 7.111a.785.785 0 1 1 .78.79.786.786 0 0 1 -.78-.787zm0 7.111a.785.785 0 1 1 .78.79.786.786 0 0 1 -.78-.79zm0 7.111a.785.785 0 1 1 .78.79.786.786 0 0 1 -.78-.79zm56.19-21.333a.794.794 0 0 1 .79-.79.79.79 0 0 1 0 1.58.794.794 0 0 1 -.79-.79zm0 7.111a.794.794 0 0 1 .79-.79.79.79 0 1 1 -.79.793zm0 7.111a.794.794 0 0 1 .79-.79.79.79 0 1 1 -.79.79zm0 7.111a.794.794 0 0 1 .79-.79.79.79 0 1 1 -.79.79zm-7.05-21.333a.785.785 0 1 1 .79.79.788.788 0 0 1 -.79-.79zm0 7.111a.785.785 0 1 1 .79.79.788.788 0 0 1 -.79-.787zm0 7.111a.785.785 0 1 1 .79.79.788.788 0 0 1 -.79-.79zm0 7.111a.785.785 0 1 1 .79.79.788.788 0 0 1 -.79-.79zm-7.05-21.333a.785.785 0 1 1 .78.79.786.786 0 0 1 -.78-.79zm0 7.111a.785.785 0 1 1 .78.79.786.786 0 0 1 -.78-.787zm0 7.111a.785.785 0 1 1 .78.79.786.786 0 0 1 -.78-.79zm0 7.111a.785.785 0 1 1 .78.79.786.786 0 0 1 -.78-.79zm-13.88 7.031a.785.785 0 1 1 .78.79.785.785 0 0 1 -.78-.79zm0 7.111a.785.785 0 1 1 .78.79.785.785 0 0 1 -.78-.79zm0 7.111a.785.785 0 1 1 .78.79.785.785 0 0 1 -.78-.79zm0 7.111a.785.785 0 1 1 .78.79.785.785 0 0 1 -.78-.79zm7.84-20.543a.79.79 0 1 1 .78-.79.788.788 0 0 1 -.78.79zm0 7.111a.79.79 0 1 1 .78-.79.788.788 0 0 1 -.78.79zm0 7.111a.79.79 0 1 1 .78-.79.788.788 0 0 1 -.78.79zm0 7.111a.79.79 0 1 1 .78-.79.788.788 0 0 1 -.78.79zm-14.89-22.123a.78.78 0 1 1 .78.79.785.785 0 0 1 -.78-.79zm0 7.111a.78.78 0 1 1 .78.79.785.785 0 0 1 -.78-.79zm0 7.111a.78.78 0 1 1 .78.79.785.785 0 0 1 -.78-.79zm0 7.111a.78.78 0 1 1 .78.79.785.785 0 0 1 -.78-.79zm-7.06-21.333a.794.794 0 0 1 .79-.79.79.79 0 0 1 0 1.58.794.794 0 0 1 -.79-.79zm0 7.111a.794.794 0 0 1 .79-.79.79.79 0 0 1 0 1.58.794.794 0 0 1 -.79-.79zm0 7.111a.794.794 0 0 1 .79-.79.79.79 0 0 1 0 1.58.794.794 0 0 1 -.79-.79zm0 7.111a.794.794 0 0 1 .79-.79.79.79 0 0 1 0 1.58.794.794 0 0 1 -.79-.79zm-7.05-21.333a.785.785 0 1 1 .79.79.787.787 0 0 1 -.79-.79zm0 7.111a.785.785 0 1 1 .79.79.787.787 0 0 1 -.79-.79zm0 7.111a.785.785 0 1 1 .79.79.787.787 0 0 1 -.79-.79zm0 7.111a.785.785 0 1 1 .79.79.787.787 0 0 1 -.79-.79zm-7.05-21.333a.785.785 0 1 1 .78.79.785.785 0 0 1 -.78-.79zm0 7.111a.785.785 0 1 1 .78.79.785.785 0 0 1 -.78-.79zm0 7.111a.785.785 0 1 1 .78.79.785.785 0 0 1 -.78-.79zm0 7.111a.785.785 0 1 1 .78.79.785.785 0 0 1 -.78-.79zm56.19-21.333a.794.794 0 0 1 .79-.79.79.79 0 0 1 0 1.58.794.794 0 0 1 -.79-.79zm0 7.111a.794.794 0 0 1 .79-.79.79.79 0 0 1 0 1.58.794.794 0 0 1 -.79-.79zm0 7.111a.794.794 0 0 1 .79-.79.79.79 0 0 1 0 1.58.794.794 0 0 1 -.79-.79zm0 7.111a.794.794 0 0 1 .79-.79.79.79 0 0 1 0 1.58.794.794 0 0 1 -.79-.79zm-7.05-21.333a.785.785 0 1 1 .79.79.787.787 0 0 1 -.79-.79zm0 7.111a.785.785 0 1 1 .79.79.787.787 0 0 1 -.79-.79zm0 7.111a.785.785 0 1 1 .79.79.787.787 0 0 1 -.79-.79zm0 7.111a.785.785 0 1 1 .79.79.787.787 0 0 1 -.79-.79zm-7.05-21.333a.785.785 0 1 1 .78.79.785.785 0 0 1 -.78-.79zm0 7.111a.785.785 0 1 1 .78.79.785.785 0 0 1 -.78-.79zm0 7.111a.785.785 0 1 1 .78.79.785.785 0 0 1 -.78-.79zm0 7.111a.785.785 0 1 1 .78.79.785.785 0 0 1 -.78-.79zm-13.88 7.031a.785.785 0 1 1 .78.79.785.785 0 0 1 -.78-.79zm0 7.111a.785.785 0 1 1 .78.789.785.785 0 0 1 -.78-.789zm0 7.11a.785.785 0 1 1 .78.79.786.786 0 0 1 -.78-.79zm0 7.111a.785.785 0 1 1 .78.79.786.786 0 0 1 -.78-.79zm7.84-20.542a.79.79 0 1 1 .78-.79.788.788 0 0 1 -.78.786zm0 7.11a.79.79 0 1 1 .78-.789.787.787 0 0 1 -.78.789zm0 7.111a.79.79 0 1 1 .78-.79.787.787 0 0 1 -.78.79zm0 7.111a.79.79 0 1 1 .78-.79.787.787 0 0 1 -.78.79zm-14.89-22.122a.78.78 0 1 1 .78.79.785.785 0 0 1 -.78-.79zm0 7.111a.78.78 0 1 1 .78.789.785.785 0 0 1 -.78-.789zm0 7.11a.78.78 0 1 1 .78.79.786.786 0 0 1 -.78-.79zm0 7.111a.78.78 0 1 1 .78.79.786.786 0 0 1 -.78-.79zm-7.06-21.332a.794.794 0 0 1 .79-.79.79.79 0 0 1 0 1.58.794.794 0 0 1 -.79-.79zm0 7.111a.794.794 0 0 1 .79-.79.79.79 0 0 1 0 1.579.793.793 0 0 1 -.79-.789zm0 7.11a.794.794 0 0 1 .79-.79.79.79 0 1 1 -.79.79zm0 7.111a.794.794 0 0 1 .79-.79.79.79 0 1 1 -.79.79zm-7.05-21.332a.785.785 0 1 1 .79.79.787.787 0 0 1 -.79-.79zm0 7.111a.785.785 0 1 1 .79.789.787.787 0 0 1 -.79-.789zm0 7.11a.785.785 0 1 1 .79.79.788.788 0 0 1 -.79-.79zm0 7.111a.785.785 0 1 1 .79.79.788.788 0 0 1 -.79-.79zm-7.05-21.332a.785.785 0 1 1 .78.79.785.785 0 0 1 -.78-.79zm0 7.111a.785.785 0 1 1 .78.789.785.785 0 0 1 -.78-.789zm0 7.11a.785.785 0 1 1 .78.79.786.786 0 0 1 -.78-.79zm0 7.111a.785.785 0 1 1 .78.79.786.786 0 0 1 -.78-.79zm56.19-21.332a.794.794 0 0 1 .79-.79.79.79 0 0 1 0 1.58.794.794 0 0 1 -.79-.79zm0 7.111a.794.794 0 0 1 .79-.79.79.79 0 0 1 0 1.579.793.793 0 0 1 -.79-.789zm0 7.11a.794.794 0 0 1 .79-.79.79.79 0 1 1 -.79.79zm0 7.111a.794.794 0 0 1 .79-.79.79.79 0 1 1 -.79.79zm-7.05-21.332a.785.785 0 1 1 .79.79.787.787 0 0 1 -.79-.79zm0 7.111a.785.785 0 1 1 .79.789.787.787 0 0 1 -.79-.789zm0 7.11a.785.785 0 1 1 .79.79.788.788 0 0 1 -.79-.79zm0 7.111a.785.785 0 1 1 .79.79.788.788 0 0 1 -.79-.79zm-7.05-21.332a.785.785 0 1 1 .78.79.785.785 0 0 1 -.78-.79zm0 7.111a.785.785 0 1 1 .78.789.785.785 0 0 1 -.78-.789zm0 7.11a.785.785 0 1 1 .78.79.786.786 0 0 1 -.78-.79zm0 7.111a.785.785 0 1 1 .78.79.786.786 0 0 1 -.78-.79zm-13.88 7.031a.785.785 0 1 1 .78.79.786.786 0 0 1 -.78-.79zm0 7.111a.785.785 0 1 1 .78.79.786.786 0 0 1 -.78-.79zm0 7.111a.785.785 0 1 1 .78.79.786.786 0 0 1 -.78-.789zm0 7.111a.785.785 0 1 1 .78.79.786.786 0 0 1 -.78-.79zm7.84-20.543a.79.79 0 1 1 .78-.79.787.787 0 0 1 -.78.79zm0 7.111a.79.79 0 1 1 .78-.79.787.787 0 0 1 -.78.79zm0 7.111a.79.79 0 1 1 .78-.79.787.787 0 0 1 -.78.79zm0 7.111a.79.79 0 1 1 .78-.79.788.788 0 0 1 -.78.79zm-14.89-22.123a.78.78 0 1 1 .78.79.786.786 0 0 1 -.78-.79zm0 7.111a.78.78 0 1 1 .78.79.786.786 0 0 1 -.78-.79zm0 7.111a.78.78 0 1 1 .78.79.786.786 0 0 1 -.78-.789zm0 7.111a.78.78 0 1 1 .78.79.786.786 0 0 1 -.78-.79zm-7.06-21.333a.794.794 0 0 1 .79-.79.79.79 0 1 1 -.79.79zm0 7.111a.794.794 0 0 1 .79-.79.79.79 0 1 1 -.79.79zm0 7.111a.794.794 0 0 1 .79-.79.79.79 0 1 1 -.79.791zm0 7.111a.794.794 0 0 1 .79-.79.79.79 0 0 1 0 1.58.794.794 0 0 1 -.79-.79zm-7.05-21.333a.785.785 0 1 1 .79.79.788.788 0 0 1 -.79-.79zm0 7.111a.785.785 0 1 1 .79.79.788.788 0 0 1 -.79-.79zm0 7.111a.785.785 0 1 1 .79.79.788.788 0 0 1 -.79-.789zm0 7.111a.785.785 0 1 1 .79.79.788.788 0 0 1 -.79-.79zm-7.05-21.333a.785.785 0 1 1 .78.79.786.786 0 0 1 -.78-.79zm0 7.111a.785.785 0 1 1 .78.79.786.786 0 0 1 -.78-.79zm0 7.111a.785.785 0 1 1 .78.79.786.786 0 0 1 -.78-.789zm0 7.111a.785.785 0 1 1 .78.79.786.786 0 0 1 -.78-.79zm56.19-21.333a.794.794 0 0 1 .79-.79.79.79 0 1 1 -.79.79zm0 7.111a.794.794 0 0 1 .79-.79.79.79 0 1 1 -.79.79zm0 7.111a.794.794 0 0 1 .79-.79.79.79 0 1 1 -.79.791zm0 7.111a.794.794 0 0 1 .79-.79.79.79 0 0 1 0 1.58.794.794 0 0 1 -.79-.79zm-7.05-21.333a.785.785 0 1 1 .79.79.788.788 0 0 1 -.79-.79zm0 7.111a.785.785 0 1 1 .79.79.788.788 0 0 1 -.79-.79zm0 7.111a.785.785 0 1 1 .79.79.788.788 0 0 1 -.79-.789zm0 7.111a.785.785 0 1 1 .79.79.788.788 0 0 1 -.79-.79zm-7.05-21.333a.785.785 0 1 1 .78.79.786.786 0 0 1 -.78-.79zm0 7.111a.785.785 0 1 1 .78.79.786.786 0 0 1 -.78-.79zm0 7.111a.785.785 0 1 1 .78.79.786.786 0 0 1 -.78-.789zm0 7.111a.785.785 0 1 1 .78.79.786.786 0 0 1 -.78-.79z" fill="#7c868a" fill-rule="evenodd" transform="translate(-5999 -789)"/></svg>