<svg height="108" viewBox="0 0 121 108" width="121" xmlns="http://www.w3.org/2000/svg"><path d="m4518.21 1208.79a.785.785 0 1 1 1.57 0 .785.785 0 1 1 -1.57 0zm0 7.11a.785.785 0 1 1 1.57 0 .785.785 0 1 1 -1.57 0zm0 7.11a.785.785 0 1 1 1.57 0 .785.785 0 1 1 -1.57 0zm0 7.11a.785.785 0 1 1 .78.79.783.783 0 0 1 -.78-.79zm7.84-20.54a.79.79 0 0 1 0-1.58.79.79 0 0 1 0 1.58zm0 7.11a.79.79 0 0 1 0-1.58.79.79 0 0 1 0 1.58zm0 7.11a.79.79 0 0 1 0-1.58.79.79 0 0 1 0 1.58zm0 7.11a.79.79 0 1 1 .78-.79.785.785 0 0 1 -.78.79zm-14.89-22.12a.78.78 0 1 1 .78.79.783.783 0 0 1 -.78-.79zm0 7.11a.78.78 0 1 1 .78.79.783.783 0 0 1 -.78-.79zm0 7.11a.78.78 0 1 1 .78.79.783.783 0 0 1 -.78-.79zm0 7.11a.78.78 0 1 1 .78.79.783.783 0 0 1 -.78-.79zm-7.06-21.33a.792.792 0 0 1 .79-.79.79.79 0 0 1 0 1.58.8.8 0 0 1 -.79-.79zm0 7.11a.792.792 0 0 1 .79-.79.79.79 0 0 1 0 1.58.8.8 0 0 1 -.79-.79zm0 7.11a.792.792 0 0 1 .79-.79.79.79 0 0 1 0 1.58.8.8 0 0 1 -.79-.79zm0 7.11a.792.792 0 0 1 .79-.79.79.79 0 0 1 0 1.58.792.792 0 0 1 -.79-.79zm-7.05-21.33a.785.785 0 1 1 .79.79.785.785 0 0 1 -.79-.79zm0 7.11a.785.785 0 1 1 .79.79.785.785 0 0 1 -.79-.79zm0 7.11a.785.785 0 1 1 .79.79.785.785 0 0 1 -.79-.79zm0 7.11a.785.785 0 1 1 .79.79.785.785 0 0 1 -.79-.79zm-7.05-21.33a.785.785 0 1 1 1.57 0 .785.785 0 1 1 -1.57 0zm0 7.11a.785.785 0 1 1 1.57 0 .785.785 0 1 1 -1.57 0zm0 7.11a.785.785 0 1 1 1.57 0 .785.785 0 1 1 -1.57 0zm0 7.11a.785.785 0 1 1 .78.79.783.783 0 0 1 -.78-.79zm56.19-21.33a.792.792 0 0 1 .79-.79.79.79 0 0 1 0 1.58.8.8 0 0 1 -.79-.79zm0 7.11a.792.792 0 0 1 .79-.79.79.79 0 0 1 0 1.58.8.8 0 0 1 -.79-.79zm0 7.11a.792.792 0 0 1 .79-.79.79.79 0 0 1 0 1.58.8.8 0 0 1 -.79-.79zm0 7.11a.792.792 0 0 1 .79-.79.79.79 0 0 1 0 1.58.792.792 0 0 1 -.79-.79zm-7.05-21.33a.785.785 0 1 1 .79.79.785.785 0 0 1 -.79-.79zm0 7.11a.785.785 0 1 1 .79.79.785.785 0 0 1 -.79-.79zm0 7.11a.785.785 0 1 1 .79.79.785.785 0 0 1 -.79-.79zm0 7.11a.785.785 0 1 1 .79.79.785.785 0 0 1 -.79-.79zm-7.05-21.33a.785.785 0 1 1 1.57 0 .785.785 0 1 1 -1.57 0zm0 7.11a.785.785 0 1 1 1.57 0 .785.785 0 1 1 -1.57 0zm0 7.11a.785.785 0 1 1 1.57 0 .785.785 0 1 1 -1.57 0zm0 7.11a.785.785 0 1 1 .78.79.783.783 0 0 1 -.78-.79zm-13.88 7.03a.785.785 0 1 1 .78.79.783.783 0 0 1 -.78-.79zm0 7.11a.785.785 0 1 1 .78.79.783.783 0 0 1 -.78-.79zm0 7.11a.785.785 0 1 1 .78.79.79.79 0 0 1 -.78-.79zm0 7.11a.785.785 0 1 1 .78.79.79.79 0 0 1 -.78-.79zm7.84-20.54a.79.79 0 1 1 .78-.79.785.785 0 0 1 -.78.79zm0 7.11a.79.79 0 1 1 .78-.79.785.785 0 0 1 -.78.79zm0 7.11a.79.79 0 1 1 .78-.79.785.785 0 0 1 -.78.79zm0 7.11a.79.79 0 1 1 .78-.79.785.785 0 0 1 -.78.79zm-14.89-22.12a.78.78 0 1 1 .78.79.783.783 0 0 1 -.78-.79zm0 7.11a.78.78 0 1 1 .78.79.783.783 0 0 1 -.78-.79zm0 7.11a.78.78 0 1 1 .78.79.79.79 0 0 1 -.78-.79zm0 7.11a.78.78 0 1 1 .78.79.79.79 0 0 1 -.78-.79zm-7.06-21.33a.792.792 0 0 1 .79-.79.79.79 0 0 1 0 1.58.792.792 0 0 1 -.79-.79zm0 7.11a.792.792 0 0 1 .79-.79.79.79 0 0 1 0 1.58.792.792 0 0 1 -.79-.79zm0 7.11a.8.8 0 0 1 .79-.79.79.79 0 1 1 -.79.79zm0 7.11a.8.8 0 0 1 .79-.79.79.79 0 1 1 -.79.79zm-7.05-21.33a.785.785 0 1 1 .79.79.785.785 0 0 1 -.79-.79zm0 7.11a.785.785 0 1 1 .79.79.785.785 0 0 1 -.79-.79zm0 7.11a.785.785 0 1 1 1.57 0 .785.785 0 1 1 -1.57 0zm0 7.11a.785.785 0 1 1 1.57 0 .785.785 0 1 1 -1.57 0zm-7.05-21.33a.785.785 0 1 1 .78.79.783.783 0 0 1 -.78-.79zm0 7.11a.785.785 0 1 1 .78.79.783.783 0 0 1 -.78-.79zm0 7.11a.785.785 0 1 1 .78.79.79.79 0 0 1 -.78-.79zm0 7.11a.785.785 0 1 1 .78.79.79.79 0 0 1 -.78-.79zm56.19-21.33a.792.792 0 0 1 .79-.79.79.79 0 0 1 0 1.58.792.792 0 0 1 -.79-.79zm0 7.11a.792.792 0 0 1 .79-.79.79.79 0 0 1 0 1.58.792.792 0 0 1 -.79-.79zm0 7.11a.8.8 0 0 1 .79-.79.79.79 0 1 1 -.79.79zm0 7.11a.8.8 0 0 1 .79-.79.79.79 0 1 1 -.79.79zm-7.05-21.33a.785.785 0 1 1 .79.79.785.785 0 0 1 -.79-.79zm0 7.11a.785.785 0 1 1 .79.79.785.785 0 0 1 -.79-.79zm0 7.11a.785.785 0 1 1 1.57 0 .785.785 0 1 1 -1.57 0zm0 7.11a.785.785 0 1 1 1.57 0 .785.785 0 1 1 -1.57 0zm-7.05-21.33a.785.785 0 1 1 .78.79.783.783 0 0 1 -.78-.79zm0 7.11a.785.785 0 1 1 .78.79.783.783 0 0 1 -.78-.79zm0 7.11a.785.785 0 1 1 .78.79.79.79 0 0 1 -.78-.79zm0 7.11a.785.785 0 1 1 .78.79.79.79 0 0 1 -.78-.79zm-13.88 7.03a.785.785 0 1 1 .78.79.79.79 0 0 1 -.78-.79zm0 7.11a.785.785 0 1 1 .78.79.79.79 0 0 1 -.78-.79zm0 7.12a.785.785 0 1 1 1.57 0 .785.785 0 1 1 -1.57 0zm0 7.11a.785.785 0 1 1 1.57 0 .785.785 0 1 1 -1.57 0zm7.84-20.55a.79.79 0 1 1 .78-.79.785.785 0 0 1 -.78.79zm0 7.11a.79.79 0 1 1 .78-.79.785.785 0 0 1 -.78.79zm0 7.12a.79.79 0 0 1 0-1.58.79.79 0 0 1 0 1.58zm0 7.11a.79.79 0 1 1 0-1.58.79.79 0 0 1 0 1.58zm-14.89-22.13a.78.78 0 1 1 .78.79.79.79 0 0 1 -.78-.79zm0 7.11a.78.78 0 1 1 .78.79.79.79 0 0 1 -.78-.79zm0 7.12a.78.78 0 1 1 .78.79.783.783 0 0 1 -.78-.79zm0 7.11a.78.78 0 1 1 .78.79.783.783 0 0 1 -.78-.79zm-7.06-21.34a.8.8 0 0 1 .79-.79.79.79 0 1 1 -.79.79zm0 7.11a.8.8 0 0 1 .79-.79.79.79 0 1 1 -.79.79zm0 7.12a.792.792 0 0 1 .79-.79.79.79 0 0 1 0 1.58.8.8 0 0 1 -.79-.79zm0 7.11a.792.792 0 0 1 .79-.79.79.79 0 0 1 0 1.58.8.8 0 0 1 -.79-.79zm-7.05-21.34a.785.785 0 1 1 1.57 0 .785.785 0 1 1 -1.57 0zm0 7.11a.785.785 0 1 1 1.57 0 .785.785 0 1 1 -1.57 0zm0 7.12a.785.785 0 1 1 .79.79.785.785 0 0 1 -.79-.79zm0 7.11a.785.785 0 1 1 .79.79.785.785 0 0 1 -.79-.79zm-7.05-21.34a.785.785 0 1 1 .78.79.79.79 0 0 1 -.78-.79zm0 7.11a.785.785 0 1 1 .78.79.79.79 0 0 1 -.78-.79zm0 7.12a.785.785 0 1 1 1.57 0 .785.785 0 1 1 -1.57 0zm0 7.11a.785.785 0 1 1 1.57 0 .785.785 0 1 1 -1.57 0zm56.19-21.34a.8.8 0 0 1 .79-.79.79.79 0 1 1 -.79.79zm0 7.11a.8.8 0 0 1 .79-.79.79.79 0 1 1 -.79.79zm0 7.12a.792.792 0 0 1 .79-.79.79.79 0 0 1 0 1.58.8.8 0 0 1 -.79-.79zm0 7.11a.792.792 0 0 1 .79-.79.79.79 0 0 1 0 1.58.8.8 0 0 1 -.79-.79zm-7.05-21.34a.785.785 0 1 1 1.57 0 .785.785 0 1 1 -1.57 0zm0 7.11a.785.785 0 1 1 1.57 0 .785.785 0 1 1 -1.57 0zm0 7.12a.785.785 0 1 1 .79.79.785.785 0 0 1 -.79-.79zm0 7.11a.785.785 0 1 1 .79.79.785.785 0 0 1 -.79-.79zm-7.05-21.34a.785.785 0 1 1 .78.79.79.79 0 0 1 -.78-.79zm0 7.11a.785.785 0 1 1 .78.79.79.79 0 0 1 -.78-.79zm0 7.12a.785.785 0 1 1 1.57 0 .785.785 0 1 1 -1.57 0zm0 7.11a.785.785 0 1 1 1.57 0 .785.785 0 1 1 -1.57 0zm-13.88 7.03a.785.785 0 1 1 1.57 0 .785.785 0 1 1 -1.57 0zm0 7.11a.785.785 0 1 1 1.57 0 .785.785 0 1 1 -1.57 0zm0 7.11a.785.785 0 1 1 .78.79.783.783 0 0 1 -.78-.79zm0 7.11a.785.785 0 1 1 .78.79.783.783 0 0 1 -.78-.79zm7.84-20.54a.79.79 0 0 1 0-1.58.79.79 0 0 1 0 1.58zm0 7.11a.79.79 0 0 1 0-1.58.79.79 0 0 1 0 1.58zm0 7.11a.79.79 0 1 1 .78-.79.785.785 0 0 1 -.78.79zm0 7.11a.79.79 0 1 1 .78-.79.785.785 0 0 1 -.78.79zm-14.89-22.12a.78.78 0 1 1 .78.79.783.783 0 0 1 -.78-.79zm0 7.11a.78.78 0 1 1 .78.79.783.783 0 0 1 -.78-.79zm0 7.11a.78.78 0 1 1 .78.79.783.783 0 0 1 -.78-.79zm0 7.11a.78.78 0 1 1 .78.79.783.783 0 0 1 -.78-.79zm-7.06-21.33a.792.792 0 0 1 .79-.79.79.79 0 0 1 0 1.58.8.8 0 0 1 -.79-.79zm0 7.11a.792.792 0 0 1 .79-.79.79.79 0 0 1 0 1.58.8.8 0 0 1 -.79-.79zm0 7.11a.792.792 0 0 1 .79-.79.79.79 0 0 1 0 1.58.792.792 0 0 1 -.79-.79zm0 7.11a.792.792 0 0 1 .79-.79.79.79 0 0 1 0 1.58.792.792 0 0 1 -.79-.79zm-7.05-21.33a.785.785 0 1 1 .79.79.785.785 0 0 1 -.79-.79zm0 7.11a.785.785 0 1 1 .79.79.785.785 0 0 1 -.79-.79zm0 7.11a.785.785 0 1 1 .79.79.785.785 0 0 1 -.79-.79zm0 7.11a.785.785 0 1 1 .79.79.785.785 0 0 1 -.79-.79zm-7.05-21.33a.785.785 0 1 1 1.57 0 .785.785 0 1 1 -1.57 0zm0 7.11a.785.785 0 1 1 1.57 0 .785.785 0 1 1 -1.57 0zm0 7.11a.785.785 0 1 1 .78.79.783.783 0 0 1 -.78-.79zm0 7.11a.785.785 0 1 1 .78.79.783.783 0 0 1 -.78-.79zm56.19-21.33a.792.792 0 0 1 .79-.79.79.79 0 0 1 0 1.58.8.8 0 0 1 -.79-.79zm0 7.11a.792.792 0 0 1 .79-.79.79.79 0 0 1 0 1.58.8.8 0 0 1 -.79-.79zm0 7.11a.792.792 0 0 1 .79-.79.79.79 0 0 1 0 1.58.792.792 0 0 1 -.79-.79zm0 7.11a.792.792 0 0 1 .79-.79.79.79 0 0 1 0 1.58.792.792 0 0 1 -.79-.79zm-7.05-21.33a.785.785 0 1 1 .79.79.785.785 0 0 1 -.79-.79zm0 7.11a.785.785 0 1 1 .79.79.785.785 0 0 1 -.79-.79zm0 7.11a.785.785 0 1 1 .79.79.785.785 0 0 1 -.79-.79zm0 7.11a.785.785 0 1 1 .79.79.785.785 0 0 1 -.79-.79zm-7.05-21.33a.785.785 0 1 1 1.57 0 .785.785 0 1 1 -1.57 0zm0 7.11a.785.785 0 1 1 1.57 0 .785.785 0 1 1 -1.57 0zm0 7.11a.785.785 0 1 1 .78.79.783.783 0 0 1 -.78-.79zm0 7.11a.785.785 0 1 1 .78.79.783.783 0 0 1 -.78-.79zm49.34-106.42a.792.792 0 0 1 .79-.79.79.79 0 0 1 0 1.58.8.8 0 0 1 -.79-.79zm0 7.11a.792.792 0 0 1 .79-.79.79.79 0 0 1 0 1.58.8.8 0 0 1 -.79-.79zm0 7.11a.792.792 0 0 1 .79-.79.79.79 0 0 1 0 1.58.8.8 0 0 1 -.79-.79zm0 7.11a.792.792 0 0 1 .79-.79.79.79 0 0 1 0 1.58.792.792 0 0 1 -.79-.79zm7.84-20.54a.79.79 0 1 1 .78-.79.79.79 0 0 1 -.78.79zm0 7.11a.79.79 0 1 1 .78-.79.79.79 0 0 1 -.78.79zm0 7.11a.79.79 0 1 1 .78-.79.79.79 0 0 1 -.78.79zm0 7.11a.79.79 0 1 1 .78-.79.783.783 0 0 1 -.78.79zm-14.89-22.12a.785.785 0 1 1 .79.79.785.785 0 0 1 -.79-.79zm0 7.11a.785.785 0 1 1 .79.79.785.785 0 0 1 -.79-.79zm0 7.11a.785.785 0 1 1 .79.79.785.785 0 0 1 -.79-.79zm0 7.11a.785.785 0 1 1 .79.79.785.785 0 0 1 -.79-.79zm-7.05-21.33a.785.785 0 1 1 1.57 0 .785.785 0 1 1 -1.57 0zm0 7.11a.785.785 0 1 1 1.57 0 .785.785 0 1 1 -1.57 0zm0 7.11a.785.785 0 1 1 1.57 0 .785.785 0 1 1 -1.57 0zm0 7.11a.785.785 0 1 1 .78.79.783.783 0 0 1 -.78-.79zm-7.05-21.33a.78.78 0 1 1 .78.79.783.783 0 0 1 -.78-.79zm0 7.11a.78.78 0 1 1 .78.79.783.783 0 0 1 -.78-.79zm0 7.11a.78.78 0 1 1 .78.79.783.783 0 0 1 -.78-.79zm0 7.11a.78.78 0 1 1 .78.79.783.783 0 0 1 -.78-.79zm-7.05-21.33a.78.78 0 1 1 .78.79.783.783 0 0 1 -.78-.79zm0 7.11a.78.78 0 1 1 .78.79.783.783 0 0 1 -.78-.79zm0 7.11a.78.78 0 1 1 .78.79.783.783 0 0 1 -.78-.79zm0 7.11a.78.78 0 1 1 .78.79.783.783 0 0 1 -.78-.79zm56.19-21.33a.785.785 0 1 1 1.57 0 .785.785 0 1 1 -1.57 0zm0 7.11a.785.785 0 1 1 1.57 0 .785.785 0 1 1 -1.57 0zm0 7.11a.785.785 0 1 1 1.57 0 .785.785 0 1 1 -1.57 0zm0 7.11a.785.785 0 1 1 .78.79.783.783 0 0 1 -.78-.79zm-7.05-21.33a.78.78 0 1 1 .78.79.783.783 0 0 1 -.78-.79zm0 7.11a.78.78 0 1 1 .78.79.783.783 0 0 1 -.78-.79zm0 7.11a.78.78 0 1 1 .78.79.783.783 0 0 1 -.78-.79zm0 7.11a.78.78 0 1 1 .78.79.783.783 0 0 1 -.78-.79zm-7.06-21.33a.792.792 0 0 1 .79-.79.79.79 0 0 1 0 1.58.8.8 0 0 1 -.79-.79zm0 7.11a.792.792 0 0 1 .79-.79.79.79 0 0 1 0 1.58.8.8 0 0 1 -.79-.79zm0 7.11a.792.792 0 0 1 .79-.79.79.79 0 0 1 0 1.58.8.8 0 0 1 -.79-.79zm0 7.11a.792.792 0 0 1 .79-.79.79.79 0 0 1 0 1.58.792.792 0 0 1 -.79-.79zm-13.88 7.03a.792.792 0 0 1 .79-.79.79.79 0 0 1 0 1.58.792.792 0 0 1 -.79-.79zm0 7.11a.792.792 0 0 1 .79-.79.79.79 0 0 1 0 1.58.792.792 0 0 1 -.79-.79zm0 7.11a.8.8 0 0 1 .79-.79.79.79 0 1 1 -.79.79zm0 7.11a.8.8 0 0 1 .79-.79.79.79 0 1 1 -.79.79zm7.84-20.54a.79.79 0 1 1 .78-.79.783.783 0 0 1 -.78.79zm0 7.11a.79.79 0 1 1 .78-.79.783.783 0 0 1 -.78.79zm0 7.11a.79.79 0 1 1 .78-.79.783.783 0 0 1 -.78.79zm0 7.11a.79.79 0 1 1 .78-.79.783.783 0 0 1 -.78.79zm-14.89-22.12a.785.785 0 1 1 .79.79.785.785 0 0 1 -.79-.79zm0 7.11a.785.785 0 1 1 .79.79.785.785 0 0 1 -.79-.79zm0 7.11a.785.785 0 1 1 1.57 0 .785.785 0 1 1 -1.57 0zm0 7.11a.785.785 0 1 1 1.57 0 .785.785 0 1 1 -1.57 0zm-7.05-21.33a.785.785 0 1 1 .78.79.783.783 0 0 1 -.78-.79zm0 7.11a.785.785 0 1 1 .78.79.783.783 0 0 1 -.78-.79zm0 7.11a.785.785 0 1 1 .78.79.79.79 0 0 1 -.78-.79zm0 7.11a.785.785 0 1 1 .78.79.79.79 0 0 1 -.78-.79zm-7.05-21.33a.78.78 0 1 1 .78.79.783.783 0 0 1 -.78-.79zm0 7.11a.78.78 0 1 1 .78.79.783.783 0 0 1 -.78-.79zm0 7.11a.78.78 0 1 1 .78.79.79.79 0 0 1 -.78-.79zm0 7.11a.78.78 0 1 1 .78.79.79.79 0 0 1 -.78-.79zm-7.05-21.33a.78.78 0 1 1 .78.79.783.783 0 0 1 -.78-.79zm0 7.11a.78.78 0 1 1 .78.79.783.783 0 0 1 -.78-.79zm0 7.11a.78.78 0 1 1 .78.79.79.79 0 0 1 -.78-.79zm0 7.11a.78.78 0 1 1 .78.79.79.79 0 0 1 -.78-.79zm56.19-21.33a.785.785 0 1 1 .78.79.783.783 0 0 1 -.78-.79zm0 7.11a.785.785 0 1 1 .78.79.783.783 0 0 1 -.78-.79zm0 7.11a.785.785 0 1 1 .78.79.79.79 0 0 1 -.78-.79zm0 7.11a.785.785 0 1 1 .78.79.79.79 0 0 1 -.78-.79zm-7.05-21.33a.78.78 0 1 1 .78.79.783.783 0 0 1 -.78-.79zm0 7.11a.78.78 0 1 1 .78.79.783.783 0 0 1 -.78-.79zm0 7.11a.78.78 0 1 1 .78.79.79.79 0 0 1 -.78-.79zm0 7.11a.78.78 0 1 1 .78.79.79.79 0 0 1 -.78-.79zm-7.06-21.33a.792.792 0 0 1 .79-.79.79.79 0 0 1 0 1.58.792.792 0 0 1 -.79-.79zm0 7.11a.792.792 0 0 1 .79-.79.79.79 0 0 1 0 1.58.792.792 0 0 1 -.79-.79zm0 7.11a.8.8 0 0 1 .79-.79.79.79 0 1 1 -.79.79zm0 7.11a.8.8 0 0 1 .79-.79.79.79 0 1 1 -.79.79zm-13.88 7.03a.8.8 0 0 1 .79-.79.79.79 0 1 1 -.79.79zm0 7.11a.8.8 0 0 1 .79-.79.79.79 0 1 1 -.79.79zm0 7.12a.792.792 0 0 1 .79-.79.79.79 0 0 1 0 1.58.8.8 0 0 1 -.79-.79zm0 7.11a.792.792 0 0 1 .79-.79.79.79 0 0 1 0 1.58.8.8 0 0 1 -.79-.79zm7.84-20.55a.79.79 0 1 1 .78-.79.783.783 0 0 1 -.78.79zm0 7.11a.79.79 0 1 1 .78-.79.783.783 0 0 1 -.78.79zm0 7.12a.79.79 0 1 1 .78-.79.79.79 0 0 1 -.78.79zm0 7.11a.79.79 0 1 1 .78-.79.79.79 0 0 1 -.78.79zm-14.89-22.13a.785.785 0 1 1 1.57 0 .785.785 0 1 1 -1.57 0zm0 7.11a.785.785 0 1 1 1.57 0 .785.785 0 1 1 -1.57 0zm0 7.12a.785.785 0 1 1 .79.79.785.785 0 0 1 -.79-.79zm0 7.11a.785.785 0 1 1 .79.79.785.785 0 0 1 -.79-.79zm-7.05-21.34a.785.785 0 1 1 .78.79.79.79 0 0 1 -.78-.79zm0 7.11a.785.785 0 1 1 .78.79.79.79 0 0 1 -.78-.79zm0 7.12a.785.785 0 1 1 1.57 0 .785.785 0 1 1 -1.57 0zm0 7.11a.785.785 0 1 1 1.57 0 .785.785 0 1 1 -1.57 0zm-7.05-21.34a.78.78 0 1 1 .78.79.79.79 0 0 1 -.78-.79zm0 7.11a.78.78 0 1 1 .78.79.79.79 0 0 1 -.78-.79zm0 7.12a.78.78 0 1 1 .78.79.783.783 0 0 1 -.78-.79zm0 7.11a.78.78 0 1 1 .78.79.783.783 0 0 1 -.78-.79zm-7.05-21.34a.78.78 0 1 1 .78.79.79.79 0 0 1 -.78-.79zm0 7.11a.78.78 0 1 1 .78.79.79.79 0 0 1 -.78-.79zm0 7.12a.78.78 0 1 1 .78.79.783.783 0 0 1 -.78-.79zm0 7.11a.78.78 0 1 1 .78.79.783.783 0 0 1 -.78-.79zm56.19-21.34a.785.785 0 1 1 .78.79.79.79 0 0 1 -.78-.79zm0 7.11a.785.785 0 1 1 .78.79.79.79 0 0 1 -.78-.79zm0 7.12a.785.785 0 1 1 1.57 0 .785.785 0 1 1 -1.57 0zm0 7.11a.785.785 0 1 1 1.57 0 .785.785 0 1 1 -1.57 0zm-7.05-21.34a.78.78 0 1 1 .78.79.79.79 0 0 1 -.78-.79zm0 7.11a.78.78 0 1 1 .78.79.79.79 0 0 1 -.78-.79zm0 7.12a.78.78 0 1 1 .78.79.783.783 0 0 1 -.78-.79zm0 7.11a.78.78 0 1 1 .78.79.783.783 0 0 1 -.78-.79zm-7.06-21.34a.8.8 0 0 1 .79-.79.79.79 0 1 1 -.79.79zm0 7.11a.8.8 0 0 1 .79-.79.79.79 0 1 1 -.79.79zm0 7.12a.792.792 0 0 1 .79-.79.79.79 0 0 1 0 1.58.8.8 0 0 1 -.79-.79zm0 7.11a.792.792 0 0 1 .79-.79.79.79 0 0 1 0 1.58.8.8 0 0 1 -.79-.79zm-13.88 7.03a.792.792 0 0 1 .79-.79.79.79 0 0 1 0 1.58.8.8 0 0 1 -.79-.79zm0 7.11a.792.792 0 0 1 .79-.79.79.79 0 0 1 0 1.58.8.8 0 0 1 -.79-.79zm0 7.11a.792.792 0 0 1 .79-.79.79.79 0 0 1 0 1.58.792.792 0 0 1 -.79-.79zm0 7.11a.792.792 0 0 1 .79-.79.79.79 0 0 1 0 1.58.792.792 0 0 1 -.79-.79zm7.84-20.54a.79.79 0 1 1 .78-.79.79.79 0 0 1 -.78.79zm0 7.11a.79.79 0 1 1 .78-.79.79.79 0 0 1 -.78.79zm0 7.11a.79.79 0 1 1 .78-.79.783.783 0 0 1 -.78.79zm0 7.11a.79.79 0 1 1 .78-.79.783.783 0 0 1 -.78.79zm-14.89-22.12a.785.785 0 1 1 .79.79.785.785 0 0 1 -.79-.79zm0 7.11a.785.785 0 1 1 .79.79.785.785 0 0 1 -.79-.79zm0 7.11a.785.785 0 1 1 .79.79.785.785 0 0 1 -.79-.79zm0 7.11a.785.785 0 1 1 .79.79.785.785 0 0 1 -.79-.79zm-7.05-21.33a.785.785 0 1 1 1.57 0 .785.785 0 1 1 -1.57 0zm0 7.11a.785.785 0 1 1 1.57 0 .785.785 0 1 1 -1.57 0zm0 7.11a.785.785 0 1 1 .78.79.783.783 0 0 1 -.78-.79zm0 7.11a.785.785 0 1 1 .78.79.783.783 0 0 1 -.78-.79zm-7.05-21.33a.78.78 0 1 1 .78.79.783.783 0 0 1 -.78-.79zm0 7.11a.78.78 0 1 1 .78.79.783.783 0 0 1 -.78-.79zm0 7.11a.78.78 0 1 1 .78.79.783.783 0 0 1 -.78-.79zm0 7.11a.78.78 0 1 1 .78.79.783.783 0 0 1 -.78-.79zm-7.05-21.33a.78.78 0 1 1 .78.79.783.783 0 0 1 -.78-.79zm0 7.11a.78.78 0 1 1 .78.79.783.783 0 0 1 -.78-.79zm0 7.11a.78.78 0 1 1 .78.79.783.783 0 0 1 -.78-.79zm0 7.11a.78.78 0 1 1 .78.79.783.783 0 0 1 -.78-.79zm56.19-21.33a.785.785 0 1 1 1.57 0 .785.785 0 1 1 -1.57 0zm0 7.11a.785.785 0 1 1 1.57 0 .785.785 0 1 1 -1.57 0zm0 7.11a.785.785 0 1 1 .78.79.783.783 0 0 1 -.78-.79zm0 7.11a.785.785 0 1 1 .78.79.783.783 0 0 1 -.78-.79zm-7.05-21.33a.78.78 0 1 1 .78.79.783.783 0 0 1 -.78-.79zm0 7.11a.78.78 0 1 1 .78.79.783.783 0 0 1 -.78-.79zm0 7.11a.78.78 0 1 1 .78.79.783.783 0 0 1 -.78-.79zm0 7.11a.78.78 0 1 1 .78.79.783.783 0 0 1 -.78-.79zm-7.06-21.33a.792.792 0 0 1 .79-.79.79.79 0 0 1 0 1.58.8.8 0 0 1 -.79-.79zm0 7.11a.792.792 0 0 1 .79-.79.79.79 0 0 1 0 1.58.8.8 0 0 1 -.79-.79zm0 7.11a.792.792 0 0 1 .79-.79.79.79 0 0 1 0 1.58.792.792 0 0 1 -.79-.79zm0 7.11a.792.792 0 0 1 .79-.79.79.79 0 0 1 0 1.58.792.792 0 0 1 -.79-.79z" fill="#7c868a" fill-rule="evenodd" transform="translate(-4490 -1208)"/></svg>