<?xml version="1.0" encoding="utf-8"?>
<!-- Generator: Adobe Illustrator 25.2.1, SVG Export Plug-In . SVG Version: 6.00 Build 0)  -->
<svg version="1.1" id="图层_1" xmlns="http://www.w3.org/2000/svg" xmlns:xlink="http://www.w3.org/1999/xlink" x="0px" y="0px"
	 viewBox="0 0 389 167" style="enable-background:new 0 0 389 167;" xml:space="preserve">
<style type="text/css">
	.st0{fill-rule:evenodd;clip-rule:evenodd;fill:#343434;}
	.st1{fill-rule:evenodd;clip-rule:evenodd;fill:#44A4AA;}
	.st2{fill:#343434;}
</style>
<g>
	<g>
		<path class="st0" d="M238.2,220.4"/>
		<path class="st0" d="M234.6,210.6"/>
		<path class="st0" d="M216.6,217.6c0.2,0,0.3,0,0.5-0.1"/>
		<path class="st0" d="M444.5,5.3c-0.2,0-0.4,0.1-0.5,0.1c-1.4,0.3-2.9,0.4-4.3,0.4c-1.3,0-2.6-0.1-3.9-0.2
			c-0.3-0.1-0.6-0.1-0.9-0.2"/>
		<path class="st0" d="M471.3,5.7L471.3,5.7c-2.2,0-2.6,0.5-3.1,1.6"/>
	</g>
	<path class="st1" d="M89.3,24.9l-0.4,0.4C82.4,31.7,84.1,41,84.1,41l0.1,0.4c0.2,0.3,0.4,0.2,0.6-0.2C87,38.6,95.1,32.1,89.3,24.9
		L89.3,24.9z"/>
	<path class="st1" d="M79.4,38.7c-0.3,0-0.3-0.3-0.5-0.8c0,0-0.4-1.4-3.4-4.2c-7-6.4-3.8-10.1-3.1-12.3c0.4-1.1,0.6-2.3,0.8-3.5
		c0,0,8.1,5.8,7.9,11.1c-0.1,2.9-0.5,5.7-1.2,8.5C79.6,38.1,79.6,38.7,79.4,38.7z"/>
</g>
<g>
	<path class="st2" d="M33.5,28.8c-0.3,0.3-0.8,0.6-1.6,0.7v25.9c0,1.7-0.4,2.8-3.9,3.2c-0.1-0.6-0.4-1.1-0.9-1.3
		c-0.7-0.4-1.9-0.6-3.9-0.9v-0.6c0,0,4.7,0.4,5.6,0.4c0.9,0,1.1-0.3,1.1-1V29.1H5.9v28.7c0,0.3-0.7,0.8-1.5,0.8H4V26.9L6.2,28h23.5
		l1.1-1.4L33.5,28.8z M18.2,31.8c-0.1,0.5-0.5,0.8-1.4,0.8c-0.6,2.5-1.4,5.5-2.5,8.5c3.5,5.6,3.2,9.5,1.5,8.1
		c-0.6-1.6-1.3-3.7-2.3-6c-1.5,3.5-3.5,7-6.1,9.8l-0.4-0.4c2.4-3.2,4.2-7.3,5.5-11.5c-1.3-2.6-2.9-5.1-5-7.1l0.4-0.4
		c2.1,1.9,3.8,3.9,5.1,5.6c0.8-2.8,1.4-5.7,1.8-8.1L18.2,31.8z M28.8,31.9c-0.1,0.5-0.4,0.7-1.4,0.7c-0.7,2.7-1.7,5.9-3,9.1
		c3.6,6.7,3,11.1,1.3,9.5c-0.5-1.9-1.2-4.6-2.2-7.3c-1.7,3.6-3.9,7.1-6.7,9.9l-0.5-0.4c2.7-3.3,4.8-7.5,6.3-11.8
		c-1.2-2.7-2.6-5.5-4.5-7.7l0.5-0.3c1.9,2.1,3.5,4.1,4.7,6c1-3,1.7-5.9,2.1-8.5L28.8,31.9z"/>
	<path class="st2" d="M37.9,45.3c0,0,0.7-0.2,0.9-0.4c1.9-1.8,4.2-4.9,6-7.9c-1.5,0.5-3.6,1-5.6,1.5c-0.2,0.2-0.4,0.3-0.5,0.4
		l-1.2-2.9c0,0,0.6-0.1,0.9-0.3c2-2.2,4.4-7.2,5.3-9.9l3,1.4c-0.1,0.3-0.6,0.6-1.3,0.6c-1.4,2.6-3.8,6.1-6,8.5
		c1.5-0.1,3.8-0.2,6.1-0.3c0.9-1.5,1.7-3,2.2-4.1l2.9,1.8c-0.2,0.3-0.7,0.5-1.4,0.4c-2,3.2-5.7,7.9-9.2,11.2
		c2.3-0.3,5.7-0.9,9.1-1.5l0.1,0.5c-2,0.7-5.7,2.1-9.6,3.3c-0.2,0.4-0.5,0.5-0.8,0.6L37.9,45.3z M38.1,53.4
		c2.2-0.5,7.1-1.7,11.8-3.2l0.1,0.6c-2.3,1.2-5.6,2.8-9.8,4.5c-0.1,0.4-0.4,0.8-0.7,0.9L38.1,53.4z M68.4,30.9
		c-0.3,0.3-0.6,0.4-1.5,0.4c-1.3,2.8-3.2,5.4-5.5,7.7c2.6,1.9,5.8,3.3,9.6,4.4l-0.1,0.4c-0.8,0.1-1.5,0.6-1.8,1.5
		c-3.6-1.4-6.6-3.1-9-5.2c-1.9,1.6-4.1,3.1-6.6,4.3l1.8,0.8h9.2l1-1.2l2.3,1.8c-0.2,0.3-0.6,0.5-1.3,0.6v11c0,0.2-0.8,0.6-1.6,0.6
		h-0.3V56h-9.7v1.8c0,0.2-0.6,0.6-1.6,0.6H53V44.8c-1,0.5-2.1,0.9-3.3,1.3l-0.3-0.6c3.7-1.5,7-3.7,9.6-6.3c-1.8-1.7-3.2-3.7-4.4-5.8
		c-1.3,2.2-2.8,4.1-4.4,5.6l-0.5-0.4c2.4-3.1,4.6-7.8,5.9-12.8l3.2,1c-0.1,0.4-0.5,0.8-1.3,0.7c-0.3,0.9-0.7,1.8-1.1,2.6h8.5
		l1.4-1.3L68.4,30.9z M54.9,46.5V55h9.7v-8.5H54.9z M55.8,31.2c-0.3,0.5-0.5,0.9-0.8,1.4c1.3,2,3,3.9,5,5.6c1.9-2.2,3.5-4.5,4.6-7
		H55.8z"/>
</g>
<g>
	<path class="st2" d="M90.2,63.7c-1.4,0.7-3.2,1.6-5.3,2.6v12.4c0,1.7-0.3,2.8-3.2,3.1c-0.1-0.6-0.3-1.2-0.7-1.5
		c-0.5-0.3-1.3-0.6-2.7-0.8V79c0,0,3.2,0.3,3.8,0.3c0.6,0,0.8-0.2,0.8-0.8V67.3c-1.3,0.6-2.6,1.3-4.1,1.9c-0.1,0.4-0.4,0.8-0.7,0.9
		l-1.1-2.6c1.2-0.3,3.3-1,5.9-1.9v-7.3h-5l-0.3-1H83v-8.2l3.2,0.4c-0.1,0.5-0.5,0.8-1.3,0.9v6.9h1.2l1.4-1.9c0,0,1.6,1.3,2.6,2.3
		c-0.1,0.4-0.4,0.6-0.9,0.6H85v6.6c1.6-0.6,3.3-1.2,5.1-1.8L90.2,63.7z M110.3,51.9c-0.3,0.3-0.7,0.4-1.4,0.5
		c-0.2,6.6-0.8,10.4-1.9,11.6c-0.8,0.8-1.9,1.1-3.2,1c0-0.5-0.1-1.1-0.6-1.4c-0.4-0.3-1.8-0.6-2.9-0.7l0-0.6
		c1.3,0.1,3.5,0.3,4.2,0.3c0.6,0,0.9-0.1,1.2-0.3c0.8-0.7,1.2-4.2,1.3-10h-7.3c-0.9,6.7-3.6,11-9.7,14l-0.3-0.5
		c5.1-3.3,7.1-7.6,7.7-13.5H91l-0.3-1.1h16.1l1.2-1.3L110.3,51.9z M107,66.4l2.7,2.1c-0.3,0.3-0.9,0.6-1.5,0.7V81
		c0,0.2-1,0.7-1.7,0.7h-0.3v-2.5H94.1v2.1c0,0.2-0.8,0.6-1.6,0.6h-0.3V66.7l2.1,1h11.5L107,66.4z M106.2,78.1v-9.4H94.1v9.4H106.2z"
		/>
	<path class="st2" d="M127.9,72.3l-2.6,1v8c0,0.2-0.6,0.7-1.6,0.7h-0.3v-8c-2.3,0.8-5,1.8-8,2.8c-0.1,0.4-0.4,0.8-0.8,0.9l-1-2.5
		c0.7-0.1,1.7-0.3,2.8-0.6V52.7h-2.4l-0.3-1.1h10.9l1.5-1.9c0,0,1.8,1.4,2.8,2.4c0,0.1-0.1,0.2-0.1,0.3l2,0.9h4.9v-4.1l3.2,0.4
		c-0.1,0.5-0.4,0.9-1.3,1v2.7h5.2l1-1.2l2.3,1.8c-0.2,0.3-0.6,0.5-1.3,0.6v10.4c0,0.1-0.8,0.6-1.6,0.6H143v-1.5h-12.4v1.3
		c0,0.2-0.6,0.6-1.5,0.6h-0.3V52.6c-0.1,0.1-0.4,0.1-0.6,0.1h-2.9v19.7l2.4-0.6L127.9,72.3z M118.3,52.7v5.9h5.1v-5.9H118.3z
		 M118.3,66.1h5.1v-6.5h-5.1V66.1z M118.3,74c1.5-0.4,3.2-0.8,5.1-1.2v-5.7h-5.1V74z M144.5,65.5c0,0,1.8,1.2,2.9,2.2
		c-0.1,0.4-0.4,0.6-0.9,0.6h-12c-0.4,1-0.9,2.2-1.4,3.2h8.4l1.2-1.2l2.4,2c-0.3,0.3-0.7,0.4-1.4,0.5c-0.4,4-1.4,7.1-2.8,8.1
		c-0.9,0.6-2.2,1-3.5,1c0-0.5-0.2-1-0.7-1.3c-0.5-0.3-2.2-0.6-3.6-0.9v-0.6c1.6,0.1,4.6,0.4,5.4,0.4c0.7,0,1-0.1,1.4-0.3
		c0.8-0.6,1.5-3.2,1.9-6.6h-8.8l-1.2,1l-2.2-2c0.4-0.2,1.1-0.4,1.7-0.6c0.4-0.9,0.8-1.9,1.1-2.7h-5.8l-0.3-1H143L144.5,65.5z
		 M130.6,54.3V58h5.3v-3.6H130.6z M135.8,62.8V59h-5.3v3.8H135.8z M137.7,54.3V58h5.3v-3.6H137.7z M143,62.8V59h-5.3v3.8H143z"/>
</g>
<g>
	<path class="st2" d="M7.4,108.9c2-1.3,3.6-3.1,4.7-5.1H7.9l-0.2-0.7h5v-4.9l2.1,0.3c0,0.3-0.3,0.6-0.8,0.6v4h2.9l1-1.2
		c0,0,1.1,0.8,1.8,1.5c0,0.3-0.3,0.4-0.6,0.4h-5v0.5c5.2,1.8,4.5,4.7,3.1,3.9c-0.5-1.1-1.9-2.4-3.1-3.4v3.6c0,0.2-0.6,0.5-1,0.5
		h-0.3v-3.6c-1.3,1.6-3,3-5.1,4.1L7.4,108.9z M18.7,111.7c-0.2,0.2-0.5,0.3-0.9,0.3c-0.6,1.6-1.2,2.9-2.3,4.1
		c2.5,1.3,2.2,2.8,1.1,2.4c-0.4-0.6-1.1-1-1.9-1.5c-1.6,1.4-3.7,2.4-6.6,3.1l-0.1-0.4c2.5-0.7,4.5-1.8,5.9-3.1
		c-1.5-0.7-3.3-1.3-4.7-1.6c0.5-0.7,1.2-1.8,1.8-3H7.7l-0.2-0.7h3.7c0.5-0.9,0.9-1.8,1.2-2.4l2.1,0.7c-0.1,0.3-0.4,0.5-1,0.4
		c-0.2,0.4-0.4,0.8-0.7,1.3h3.7l0.8-0.8L18.7,111.7z M9,99.2c3.7,1.6,2.6,4.2,1.4,3.2c-0.1-1-1-2.3-1.7-3L9,99.2z M12.3,111.8
		c-0.6,1-1.2,2-1.8,2.8c1.7,0.2,3,0.6,4,1c0.9-1.1,1.5-2.3,1.9-3.7H12.3z M18.5,99.7c-0.1,0.2-0.4,0.4-0.9,0.4c-0.7,1-1.5,2-2.3,2.7
		l-0.4-0.2c0.5-0.9,1.1-2.3,1.6-3.6L18.5,99.7z M27.5,104.3c-0.5,3.9-1.3,7.2-3.1,9.8c1.3,1.9,3.1,3.6,5.4,4.8l-0.1,0.2
		c-0.6,0-1.1,0.3-1.3,0.9c-2-1.3-3.6-3-4.8-4.9c-1.6,2-3.8,3.6-6.9,4.9l-0.2-0.3c3-1.6,5.1-3.5,6.5-5.7c-1.2-2.3-1.9-4.9-2.4-7.7
		c-0.6,1.3-1.3,2.5-2.1,3.5l-0.4-0.2c1.5-2.9,2.8-7.2,3.4-11.4l2.3,0.5c-0.1,0.3-0.3,0.6-0.8,0.6c-0.3,1.5-0.7,3-1.2,4.3h5l1.1-1.3
		c0,0,1.2,0.9,1.9,1.6c-0.1,0.3-0.3,0.4-0.6,0.4H27.5z M21.5,104.3c-0.1,0.4-0.3,0.8-0.5,1.2c0.6,2.7,1.4,5.3,2.6,7.5
		c1.3-2.5,2-5.3,2.3-8.6H21.5z"/>
	<path class="st2" d="M49.3,108.4c-0.9,0.5-2,1-3.3,1.7v7.8c0,1.1-0.2,1.8-2.1,2.1c-0.1-0.4-0.2-0.8-0.5-1c-0.3-0.2-0.9-0.4-1.8-0.5
		v-0.4c0,0,2.1,0.2,2.6,0.2c0.4,0,0.5-0.1,0.5-0.5v-7c-0.8,0.4-1.7,0.8-2.6,1.2c-0.1,0.3-0.2,0.5-0.5,0.6l-0.8-1.7
		c0.8-0.2,2.2-0.6,3.9-1.2v-5.3h-3.3l-0.2-0.7h3.5v-5.5l2.2,0.3c-0.1,0.3-0.3,0.6-0.9,0.6v4.6h0.6l0.9-1.2c0,0,1.1,0.9,1.7,1.6
		c-0.1,0.3-0.3,0.4-0.6,0.4h-2.6v4.9c1-0.4,2.1-0.7,3.2-1.1L49.3,108.4z M57.1,108.8v3.6h3.1l0.8-0.8l1.8,1.3
		c-0.2,0.2-0.6,0.4-1.1,0.5v6c0,0.1-0.6,0.5-1.1,0.5h-0.2v-1.5h-7.6v1.1c0,0.1-0.6,0.5-1.1,0.5h-0.2v-8.2l1.4,0.6h2.9v-3.6h-4.9
		c-0.2,3.6-1,7.7-3.5,10.8l-0.4-0.2c2.5-4.2,2.8-9.2,2.8-13.9V99l1.5,0.7h9.2l0.7-0.7l1.6,1.2c-0.1,0.1-0.5,0.3-0.8,0.4v4.5
		c0,0.1-0.6,0.4-1.1,0.4h-0.2v-0.9H51v0.8c0,0.9,0,1.8,0,2.8h4.9v-3.2l2.1,0.2c0,0.3-0.3,0.6-0.8,0.6v2.4h3.1l1-1.3
		c0,0,1.2,0.9,1.9,1.6c0,0.3-0.3,0.4-0.6,0.4H57.1z M51,100.4v3.5h9.6v-3.5H51z M52.8,113.1v4.6h7.6v-4.6H52.8z"/>
	<path class="st2" d="M84.4,99c-0.1,0.3-0.3,0.4-0.9,0.3c-1.5,3.5-4.5,7.6-8.7,10.1l-0.3-0.3c3.7-2.7,6.6-7.2,7.8-10.9L84.4,99z
		 M91.4,106.8l1.6,1.4c-0.1,0.2-0.4,0.3-0.9,0.4c-0.2,5.4-0.8,9.4-1.8,10.5c-0.6,0.6-1.6,0.9-2.6,0.9c0-0.4-0.1-0.8-0.5-1
		c-0.4-0.2-1.6-0.5-2.5-0.6l0-0.5c1.2,0.1,3.1,0.3,3.6,0.3c0.5,0,0.7,0,1-0.3c0.7-0.7,1.2-4.5,1.5-9.5h-6c-0.4,3.8-1.7,8.3-8.8,11.6
		l-0.3-0.4c6.4-3.5,7.4-7.8,7.7-11.2h-5.3l-0.2-0.7h12.7L91.4,106.8z M89.9,98.5c-0.1,0.3-0.4,0.6-0.7,1c1.3,3.5,3.9,6.8,7.8,8.4
		l-0.1,0.2c-0.6,0-1.1,0.5-1.4,1c-4-2.3-6.2-5.8-7.5-11l0.2-0.1L89.9,98.5z"/>
	<path class="st2" d="M113.7,107.3c5,2,4,5.1,2.5,4.1c-0.4-1.1-1.5-2.6-2.5-3.6v11.7c0,0.2-0.5,0.5-1,0.5h-0.3v-12
		c-0.9,2.5-2.2,4.8-3.9,6.7l-0.4-0.3c1.8-2.8,3.1-6.5,3.8-10h-3.5l-0.2-0.7h4.1v-5.5l2.1,0.2c-0.1,0.3-0.2,0.6-0.9,0.6v4.6h1.2
		l1-1.3c0,0,1.2,0.9,1.9,1.6c0,0.3-0.3,0.4-0.6,0.4h-3.5V107.3z M128.4,105.1c0,0,1.2,0.9,1.9,1.6c0,0.3-0.3,0.4-0.6,0.4h-3.6v12.5
		c0,0.1-0.5,0.4-1.1,0.4h-0.2v-12.9H120v0.4c0,4.1-0.4,9.1-4.2,12.5l-0.4-0.3c2.9-3.4,3.3-7.7,3.3-12.1v-7.5l1.7,0.6
		c2.5-0.7,5.1-1.7,6.6-2.5l1.8,1.6c-0.2,0.2-0.6,0.2-1.2,0c-1.9,0.6-4.8,1.3-7.6,1.6v5.1h7.4L128.4,105.1z"/>
	<path class="st2" d="M161.7,98.6c0,0,1.3,1,2.1,1.7c0,0.2-0.3,0.4-0.6,0.4H160v17.1c0,1.1-0.3,2-2.6,2.2c0-0.4-0.2-0.8-0.6-1
		c-0.5-0.2-1.3-0.4-2.6-0.6v-0.4c0,0,3.2,0.2,3.8,0.2c0.6,0,0.7-0.2,0.7-0.6v-17h-16.6l-0.2-0.7h18.6L161.7,98.6z M154.6,105.4
		c-0.2,0.2-0.6,0.4-1,0.5v8.1c0,0.1-0.7,0.5-1.1,0.5h-0.2v-1.8H146v2.3c0,0.1-0.5,0.5-1,0.5h-0.2v-11.2l1.4,0.7h5.9l0.8-0.9
		L154.6,105.4z M152.3,111.9v-6.4H146v6.4H152.3z"/>
	<path class="st2" d="M180.6,108.5c4.2,1.8,3.4,4.4,2.1,3.6c-0.3-0.9-1.2-2.1-2.1-3v10.4c0,0.2-0.5,0.6-1.1,0.6h-0.2v-10.3
		c-1.2,1.4-2.5,2.7-3.9,3.6l-0.3-0.3c2.6-2.3,5.2-6.1,6.5-9.2h-5.7l-0.2-0.7h5.9l0.9-0.9l1.6,1.6c-0.2,0.2-0.5,0.2-1.1,0.3
		c-0.6,1.3-1.4,2.6-2.4,4V108.5z M178.3,98.2c4.3,1.8,3.2,4.6,1.9,3.6c-0.3-1.1-1.3-2.5-2.2-3.4L178.3,98.2z M191.6,103.1
		c0,0.3-0.3,0.6-0.8,0.6c-0.1,7.3,0.1,12.8-8.4,16.3l-0.3-0.4c7.6-3.6,7.3-9.1,7.3-16.7L191.6,103.1z M186.3,112.3
		c0,0.1-0.4,0.5-1,0.5h-0.2V99.2l1.5,0.7h7.4l0.7-0.8l1.6,1.3c-0.2,0.2-0.4,0.3-0.9,0.4V112c0,0.1-0.5,0.4-1.1,0.4h-0.2v-11.9h-7.8
		V112.3z M197.2,117.9c0.5,0.2,0.5,0.3,0.5,0.6c0,0.6-0.6,0.8-3.3,0.8h-1.8c-1.4,0-1.7-0.3-1.7-1.2v-7.5l1.9,0.2
		c0,0.3-0.3,0.5-0.7,0.6v6.3c0,0.3,0.1,0.4,0.7,0.4h1.6c0.7,0,1.3,0,1.5,0c0.2,0,0.3-0.1,0.3-0.3c0.1-0.4,0.4-1.8,0.6-3.1h0.4
		L197.2,117.9z"/>
	<path class="st2" d="M217.8,99c-0.1,0.3-0.4,0.5-0.9,0.5c-0.8,2-1.8,3.8-2.9,5.6l0.7,0.3c-0.1,0.2-0.3,0.4-0.7,0.4v13.8
		c0,0.1-0.6,0.5-1.1,0.5h-0.3v-13c-1.2,1.6-2.4,3-3.6,4.1l-0.4-0.3c2.6-2.9,5.3-7.7,7-12.6L217.8,99z M230.4,117.8
		c0.6,0.2,0.7,0.4,0.7,0.6c0,0.7-0.9,0.9-5.3,0.9h-3.1c-2.1,0-2.7-0.5-2.7-1.9v-5.9c-1.6,1-3.3,2-5,2.8l-0.2-0.3
		c1.8-1,3.6-2.2,5.2-3.5V98.5l2.2,0.2c0,0.3-0.3,0.6-0.9,0.7v9.9c2.7-2.3,5.1-4.7,6.6-6.9l1.8,1.5c-0.2,0.2-0.4,0.3-1,0
		c-1.8,2.1-4.4,4.5-7.5,6.7v6.5c0,0.7,0.2,1,1.5,1h3c1.4,0,2.4,0,2.9-0.1c0.3,0,0.5-0.1,0.6-0.3c0.2-0.4,0.5-1.8,0.8-3.4h0.3
		L230.4,117.8z"/>
</g>
</svg>
