<?xml version="1.0" encoding="utf-8"?>
<!-- Generator: Adobe Illustrator 25.2.1, SVG Export Plug-In . SVG Version: 6.00 Build 0)  -->
<svg version="1.1" id="图层_1" xmlns="http://www.w3.org/2000/svg" xmlns:xlink="http://www.w3.org/1999/xlink" x="0px" y="0px"
	 viewBox="0 0 345 147" style="enable-background:new 0 0 345 147;" xml:space="preserve">
<style type="text/css">
	.st0{fill-rule:evenodd;clip-rule:evenodd;fill:#343434;}
	.st1{fill-rule:evenodd;clip-rule:evenodd;fill:#44A4AA;}
	.st2{fill:#343434;}
</style>
<g>
	<g>
		<path class="st0" d="M265.6,217.5"/>
		<path class="st0" d="M262,207.8"/>
		<path class="st0" d="M244.1,214.8c0.2,0,0.3,0,0.5-0.1"/>
		<path class="st0" d="M472,2.5c-0.2,0-0.4,0.1-0.5,0.1c-1.4,0.3-2.9,0.4-4.3,0.4c-1.3,0-2.6-0.1-3.9-0.2c-0.3-0.1-0.6-0.1-0.9-0.2"
			/>
		<path class="st0" d="M498.8,2.9L498.8,2.9c-2.2,0-2.6,0.5-3.1,1.6"/>
	</g>
	<path class="st1" d="M115.9,20.6l-0.4,0.4c-6.5,6.4-4.9,15.8-4.9,15.8l0.1,0.4c0.2,0.3,0.4,0.2,0.6-0.2
		C113.6,34.3,121.7,27.9,115.9,20.6L115.9,20.6z"/>
	<path class="st1" d="M105.9,34.4c-0.3,0-0.3-0.3-0.5-0.8c0,0-0.4-1.4-3.4-4.2c-7-6.4-3.8-10.1-3.1-12.3c0.4-1.1,0.6-2.3,0.8-3.5
		c0,0,8.1,5.7,7.9,11.1c-0.1,2.9-0.5,5.7-1.2,8.5C106.2,33.8,106.2,34.4,105.9,34.4z"/>
</g>
<g>
	<path class="st2" d="M8.2,19.8h31.5c2.7,0,4,1.4,3.8,4.1V58c0.5,4-3.9,4.9-13.1,2.6c-1-1.3-0.8-2.1,0.8-2.6
		c7.5,2.2,10.9,2,10.1-0.8V24.7c0.2-1.7-0.5-2.6-2.2-2.6H8.6c-1.5,0-2.2,1-2.2,3v36c-0.8,1-1.5,1-2.2,0V24.3
		C4.1,21.3,5.5,19.8,8.2,19.8z M20.2,23.9c1-0.8,1.7-0.6,2.2,0.4c0,4-1.1,9.5-3.4,16.5c2,4.3,3.5,8.2,4.5,12
		c-0.5,1.5-1.3,1.8-2.2,0.8c-1-3.5-2.2-6.9-3.8-10.1C14.9,49.2,12,53.6,9,56.6c-1.3,0.2-1.8-0.4-1.5-1.9c3.5-3.5,6.4-8,8.6-13.5
		C12.8,35,10,30.2,7.5,27c0-1.5,0.6-2,1.9-1.5c2.2,3,4.9,7.4,7.9,13.1C19,34.1,20,29.2,20.2,23.9z M23.6,26.6c0-1.2,0.6-1.7,1.9-1.5
		c2.2,3.3,4.6,7.4,7.1,12.4c1.7-4.2,3.1-8.6,4.1-13.1c1-1,1.7-0.9,2.2,0.4C37.6,30,36,35.2,34,40.2c2.5,5,4.4,9.6,5.6,13.9
		c-0.5,1.3-1.3,1.5-2.2,0.8c-1-3.5-2.5-7.4-4.5-11.6c-2.5,5.8-5,10.3-7.5,13.5c-1.3,0.5-1.9,0-1.9-1.5c3-3.8,5.6-8.6,7.9-14.6
		C29.2,35.7,26.6,31.1,23.6,26.6z"/>
	<path class="st2" d="M65.6,53.6c1.2,0.5,1.4,1.3,0.4,2.2c-5.5,1.2-10.6,2.1-15.4,2.6c-1.3-0.5-1.3-1.3,0-2.2
		C55.9,55.7,60.9,54.8,65.6,53.6z M58.5,19.1c1.2-0.8,2-0.5,2.2,0.8c-2,3.8-4.4,7.9-7.1,12.4H60c1-1.5,1.9-3.1,2.6-4.9
		c1.5-1,2.2-0.6,2.2,1.1c-2.8,5.2-6.4,10.9-10.9,16.9c3.8-0.2,7.4-0.8,10.9-1.5c1,0.5,1,1.3,0,2.2c-6,1-10.1,1.5-12.4,1.5
		c-2.5,0.3-3.1-0.5-1.9-2.2c2-2,4.7-5.6,8.2-10.9h-6c-2,0-2.6-0.9-1.9-2.6C53,28.8,55.5,24.6,58.5,19.1z M73.1,18.3
		c1.2-1,2-0.8,2.2,0.8L74.5,21h11.2c3.2,0,4.5,1.5,3.8,4.5c-1,2.2-3.6,5.5-7.9,9.8c3.2,3,7.4,5.5,12.4,7.5c0.8,1.3,0.4,2-1.1,2.2
		c-4.8-1.5-9.3-4.2-13.5-8.2c-4.3,3.3-8.2,5.6-12,7.1c-1.8-0.2-2.2-1-1.5-2.2c4-1.2,7.9-3.5,11.6-6.8c-2.8-3.8-4.6-6.8-5.6-9
		c-1.5,2.8-3,5.1-4.5,7.1c-1.5,0.5-2.1,0-1.9-1.5C68.4,27.7,70.9,23.3,73.1,18.3z M73.5,44.2h11.6c3.5,0,5.1,1.4,4.9,4.1v9.4
		c0.2,3.2-1.8,4.7-6,4.5H73.9c-3.3,0.2-4.9-1.3-4.9-4.5v-8.6C69,45.8,70.5,44.2,73.5,44.2z M84.8,46.4H73.9c-1.8,0-2.6,0.9-2.6,2.6
		v8.2c0,2,0.9,2.9,2.6,2.6h11.2c2,0.2,2.9-0.5,2.6-2.2V49C88,47.3,87,46.4,84.8,46.4z M85.9,23.2H73.5c1.5,3.8,3.6,7.1,6.4,10.1
		c2.7-2.5,5-5,6.8-7.5C87.6,24.1,87.4,23.2,85.9,23.2z"/>
</g>
<g>
	<path class="st2" d="M112.4,47.1v9.8h6.4c1,0.8,1,1.5,0,2.2h-6.4v9.4c1.2-0.8,2.6-1.6,4.1-2.6c1.5-0.2,1.9,0.4,1.1,1.9
		c-1.3,1-3,2.1-5.2,3.4v14.2c0.2,3.5-2.5,4.5-8.2,3c-1.3-1-1.1-1.8,0.4-2.2c4,1.5,5.9,1,5.6-1.5V72.2c-2,1-4,1.9-6,2.6
		c-1.5-0.2-1.8-1-0.8-2.2c2.5-1,4.7-2,6.8-3V59.1h-6c-1-0.8-1-1.5,0-2.2h6v-9.8C110.9,46.1,111.6,46.1,112.4,47.1z M118.4,48.6h22.9
		c3,0,4.4,1.1,4.1,3.4v9.4c0.2,5.2-1.8,7.8-6,7.5c-2.8,0.3-6.3-0.2-10.5-1.5c-0.8-1-0.5-1.7,0.8-2.2c3,1.3,6.2,1.8,9.8,1.5
		c2.7,0.3,4-1.5,3.8-5.2v-8.2c0.2-1.5-0.5-2.2-2.2-2.2h-10.5c-0.3,7.8-3.6,13.6-10.1,17.6c-1.5,0-1.9-0.6-1.1-1.9
		c5.7-3.8,8.7-9,9-15.8h-9.8C117.4,50.1,117.4,49.4,118.4,48.6z M123.6,71.9h17.2c2.7,0,4,1.3,3.8,3.8v9.8c0.2,2.7-1,4-3.8,3.8
		h-17.2c-2.5,0.2-3.8-1-3.8-3.8V76C119.9,73.3,121.1,71.9,123.6,71.9z M140.1,74.1h-15.8c-1.5,0-2.2,0.8-2.2,2.2v8.2
		c0,1.7,0.8,2.5,2.2,2.2h15.8c1.7,0.2,2.5-0.5,2.2-2.2v-8.2C142.6,74.9,141.9,74.1,140.1,74.1z"/>
	<path class="st2" d="M151,48.2h15.8c1.2,0.8,1.2,1.5,0,2.2h-1.5v30l2.6-0.4c1,0.5,1.1,1.3,0.4,2.2l-3,0.8v6.4
		c-0.8,1.2-1.5,1.2-2.2,0v-6l-12,2.2c-1.3-0.3-1.4-1-0.4-2.2l2.6-0.4V50.5H151C149.7,49.8,149.7,49,151,48.2z M163,50.5h-7.5v8.2
		h7.5V50.5z M163,61h-7.5v9h7.5V61z M163,72.2h-7.5v10.5l7.5-1.5V72.2z M168.2,69.2h25.5c1,0.8,1,1.5,0,2.2h-18l-0.4,3.4
		c0,1,0.9,1.4,2.6,1.1h11.2c2.7,0,4,1.3,3.8,3.8c0.2,5.7-1.9,9.1-6.4,10.1c-6,0.8-10.8,0.1-14.2-1.9c-0.5-1.5-0.1-2.1,1.1-1.9
		c3.5,1.7,7.6,2.2,12.4,1.5c3.2-1,4.9-3.4,4.9-7.1c0-1.5-0.8-2.2-2.2-2.2h-12c-2.8,0.3-3.9-0.8-3.4-3l0.4-3.8h-5.2
		C167,70.8,167,70,168.2,69.2z M179.9,45.6c0.8-1,1.5-1,2.2,0V49h6.8c3,0,4.4,1.3,4.1,3.8v9.4c0.2,3-1,4.4-3.8,4.1h-16.5
		c-2.5,0.3-3.8-1-3.8-3.8v-9.8c0-2.5,1.2-3.8,3.8-3.8h7.1L179.9,45.6L179.9,45.6z M179.9,51.2h-6.4c-1.5,0-2.2,0.8-2.2,2.2V56h8.6
		L179.9,51.2L179.9,51.2z M179.9,58.4h-8.6v3.4c0,1.8,0.8,2.5,2.2,2.2h6.4L179.9,58.4L179.9,58.4z M188.5,51.2h-6.4v4.9h8.6v-2.6
		C191,52,190.2,51.2,188.5,51.2z M190.8,58.4h-8.6V64h6.4c1.7,0.3,2.5-0.5,2.2-2.2L190.8,58.4L190.8,58.4z"/>
</g>
<g>
	<path class="st2" d="M10.7,121.8l-0.6,1.1h6.8c2.1,0.2,2.7,1.3,2,3.4c-0.6,1.7-1.9,3.7-3.9,5.9c1.5,0.6,2.6,1.1,3.4,1.7
		c0.6,0.7,0.3,1.2-0.8,1.4c-0.9-0.6-2.2-1.1-3.7-1.7c-3,1.5-6.7,2.4-11,2.8c-1.1-0.4-1.2-0.9-0.3-1.7c3.2-0.2,6.2-0.8,9-2
		c-2.1-1.1-4.4-2.1-7-2.8c-0.8-0.4-0.8-0.9-0.3-1.7c1.1-1.1,2.2-2.3,3.1-3.7H1.7c-0.6-0.6-0.6-1.1,0-1.7h6.5l0.8-1.7
		C9.9,120.7,10.5,120.9,10.7,121.8z M11,120.1v-5.9c-2.1,2.4-4.6,4.4-7.6,5.9c-1.1-0.2-1.4-0.7-0.8-1.7c2.6-1.1,5.1-3,7.3-5.6H2.2
		c-0.9-0.6-0.9-1.1,0-1.7H11v-7c0.6-0.9,1.1-0.9,1.7,0v7h6.8c0.7,0.6,0.7,1.1,0,1.7h-5.6c1.9,2.1,3.6,4,5.1,5.9
		c0,1.1-0.5,1.5-1.4,1.1c-1.5-1.9-3.1-3.7-4.8-5.6v5.9C12.1,120.9,11.5,120.9,11,120.1z M3.9,105.8c0.2-0.9,0.7-1.2,1.4-0.8
		c0.9,1.1,1.8,2.7,2.5,4.8c-0.4,0.9-0.9,1.1-1.7,0.6C5.8,109.2,5.1,107.7,3.9,105.8z M16.3,124.6h-7c-1.1,1.7-2.2,3.1-3.4,4.2
		c2.6,0.8,5,1.7,7,2.8c2.1-1.9,3.5-3.7,4.2-5.6C17.5,125.1,17.2,124.6,16.3,124.6z M17.7,104.7c0.7-0.4,1.2-0.1,1.4,0.8
		c-0.8,1.7-1.8,3.4-3.1,5.1c-0.9,0.4-1.4,0.1-1.4-0.8C15.9,108,17,106.3,17.7,104.7z M25.3,104.7c-0.2,1.7-0.4,3.1-0.6,4.2H34
		c0.7,0.6,0.7,1.1,0,1.7h-2.2c0.2,6.6-0.8,12.2-3.1,16.9c1.9,3.2,3.7,5.7,5.3,7.6c0.4,1.1,0,1.6-1.1,1.4c-1.9-2.1-3.7-4.6-5.3-7.6
		c-2.2,3-4.7,5.5-7.3,7.6c-1.1,0.4-1.5,0-1.1-1.1c2.8-2.4,5.2-5.1,7.3-7.9c-1.9-3.4-3.2-7.2-3.9-11.5l-1.7,3.4
		c-0.8,0.4-1.2,0.1-1.4-0.8c2.4-4.9,3.8-9.6,4.2-14.1C24.4,103.6,24.9,103.7,25.3,104.7z M30.1,110.6h-5.9l-0.6,2.2
		c0.9,5.4,2.2,9.8,3.9,12.9C29.2,121.8,30.1,116.7,30.1,110.6z"/>
	<path class="st2" d="M59.1,103.8v6.2h5.1c0.7,0.6,0.7,1.1,0,1.7h-5.1v9.3c1.9-1.1,3.4-2.2,4.5-3.1c1.1,0,1.4,0.5,0.8,1.4
		c-1.1,0.9-2.9,2.1-5.3,3.4v11.5c0.2,2.1-2.1,2.4-6.8,1.1c-0.6-0.9-0.3-1.5,0.8-1.7c3.2,1.1,4.6,1.1,4.2,0v-10.4
		c-2.1,0.9-3.7,1.6-4.8,2c-1.1-0.2-1.2-0.7-0.3-1.7c1.7-0.6,3.4-1.2,5.1-2v-9.8h-5.1c-0.8-0.4-0.8-0.9,0-1.7h5.1v-6.2
		C58,103.1,58.6,103.1,59.1,103.8z M68.7,104.1h12.4c2.2,0,3.3,0.9,3.1,2.8v2.2c0.2,2.4-0.8,3.6-2.8,3.4h-4.5v3.9h7
		c0.7,0.6,0.7,1.1,0,1.7h-7v5.6h3.9c2.4,0,3.6,1.1,3.4,3.4v5.1c0.2,2.4-1,3.6-3.7,3.4h-9c-2.1,0.4-3.1-0.7-3.1-3.1v-5.3
		c0-2.2,1.1-3.4,3.4-3.4h3.4v-5.6H69c-0.9-0.6-0.9-1.1,0-1.7h6.2v-3.9h-7.9v5.6c0.2,7.3-1.2,13.3-4.2,18c-1.1,0.6-1.6,0.3-1.4-0.8
		c2.8-4.5,4.1-10.1,3.9-16.9v-10.7C65.6,105.3,66.6,104.1,68.7,104.1z M81.1,105.8H69c-1.1,0-1.7,0.7-1.7,2v3.1h13.5
		c1.3,0.2,1.9-0.4,1.7-1.7v-1.7C82.6,106.3,82.2,105.8,81.1,105.8z M80.5,125.5h-8.4c-1.3,0-2,0.7-2,2v4.8c0,1.3,0.6,1.9,1.7,1.7
		h8.7c1.5,0.2,2.2-0.5,2-2v-4.5C82.6,126.1,82,125.5,80.5,125.5z"/>
	<path class="st2" d="M114,104.1c0.9-0.7,1.5-0.6,1.7,0.6c-2.4,6.6-6.6,11.4-12.4,14.6c-1.1,0-1.4-0.5-0.8-1.4
		C107.9,114.5,111.8,109.9,114,104.1z M108.7,116.5h18.8c2.1,0,3.1,1,3.1,3.1c0,4.3-0.3,8.3-0.8,11.8c-0.6,3.2-2.1,4.9-4.5,5.1
		c-2.4,0-5.1-0.6-7.9-1.7c-0.6-0.9-0.4-1.5,0.6-1.7c2.8,1.1,5.2,1.7,7,1.7c1.7-0.2,2.7-1.4,3.1-3.7c0.6-4.7,0.8-8.4,0.8-11.2
		c0-1.1-0.6-1.7-1.7-1.7h-10.7c-0.6,9-4.8,15.1-12.7,18.3c-1.1,0-1.4-0.5-0.8-1.4c7.3-3.2,11.2-8.8,11.8-16.9h-6.2
		C107.9,117.8,107.9,117.2,108.7,116.5z M121.6,104.1c0.2-0.9,0.7-1.1,1.7-0.6c3.7,6.4,8,11.2,12.7,14.6c0.2,1.1-0.3,1.5-1.4,1.1
		C129.7,116.1,125.4,111,121.6,104.1z"/>
	<path class="st2" d="M159.4,103.8c0.6-0.7,1.1-0.7,1.7,0v7.3h5.1c0.7,0.6,0.7,1.1,0,1.7h-4.8c2.2,3.4,3.8,6.4,4.8,9
		c-0.2,1.1-0.7,1.4-1.4,0.8c-0.8-2.1-2-4.5-3.7-7.3v20.8c-0.6,0.9-1.1,0.9-1.7,0v-18.8c-1.3,4.1-3,7.7-5.1,10.7
		c-0.9,0.4-1.4,0-1.4-1.1c2.6-3.7,4.6-8.4,5.9-14.1h-5.1c-0.8-0.6-0.8-1.1,0-1.7h5.6L159.4,103.8L159.4,103.8z M182.7,104.7
		c0.9,0.4,1.1,0.9,0.6,1.7c-3.4,1.1-7.3,1.9-11.8,2.2c-1.1,0-1.7,0.4-1.7,1.1v4.5h15.8c0.7,0.6,0.7,1.1,0,1.7h-5.1v19.7
		c-0.6,0.9-1.1,0.9-1.7,0v-19.7h-9v6.8c0.4,5.1-1.1,9.5-4.5,13.2c-0.9,0.4-1.4,0-1.4-1.1c3.2-3.4,4.6-7.3,4.2-11.8v-13.8
		c0-1.5,0.9-2.2,2.8-2.2C174.6,106.9,178.6,106.2,182.7,104.7z"/>
	<path class="st2" d="M204.4,105.2h31.2c0.9,0.6,0.9,1.1,0,1.7H232v25.9c0,2.8-2.2,4.1-6.8,3.9c-2.2-0.2-4.8-0.8-7.6-1.7
		c-0.8-0.9-0.5-1.5,0.8-1.7c7.9,2.6,11.8,2.2,11.8-1.1v-25.3h-25.9C203.5,106.3,203.5,105.8,204.4,105.2z M209.5,111.4h12.9
		c2.1,0,3,1,2.8,3.1v10.4c0.2,2.1-0.8,3-3.1,2.8h-12.7c-1.9,0.2-2.8-0.7-2.8-2.8v-10.7C206.7,112.3,207.6,111.4,209.5,111.4z
		 M221.9,113.1H210c-1.1,0-1.7,0.5-1.7,1.4v9.8c0,1.3,0.6,1.9,1.7,1.7h12.1c1.1,0.2,1.6-0.4,1.4-1.7V115
		C223.7,113.7,223.2,113.1,221.9,113.1z"/>
	<path class="st2" d="M260.7,120.4v15.8c-0.6,0.7-1.1,0.7-1.7,0V121c-1.1,1.5-2.5,3-4.2,4.5c-0.9,0-1.3-0.5-1.1-1.4
		c4.1-3.7,6.9-7.6,8.4-11.5c0.4-0.7,0-1.1-1.1-1.1h-5.9c-0.8-0.6-0.8-1.1,0-1.7h7c1.9,0,2.5,0.8,2,2.5c-0.8,2.1-1.8,4.1-3.1,6.2
		c1.5,0.9,3.2,2.3,5.1,4.2c0.2,1.1-0.3,1.5-1.4,1.1C263.2,122.3,261.8,121.2,260.7,120.4z M261.8,108.3c-0.2,0.9-0.8,1.1-1.7,0.6
		c-0.8-1.9-1.5-3.4-2.2-4.5c0-1.1,0.5-1.5,1.4-1.1C260.6,105.1,261.5,106.8,261.8,108.3z M274.8,110.8c0.6-0.7,1.1-0.7,1.7,0v7.3
		c0.4,9-3.9,15-12.9,18c-0.9-0.2-1.1-0.8-0.6-1.7c8.2-2.8,12.2-8.4,11.8-16.9V110.8z M270.8,104.7H281c1.9,0,2.8,0.9,2.8,2.8v15.8
		c-0.6,0.8-1.1,0.8-1.7,0V108c0-1.1-0.6-1.7-1.7-1.7h-9c-1.1,0-1.7,0.6-1.7,1.7v15.8c-0.6,0.8-1.1,0.8-1.7,0v-16.3
		C268,105.6,269,104.7,270.8,104.7z M278.7,121.5v11c0,0.9,0.6,1.4,1.7,1.4h2.8c1.1,0.2,1.7-1.5,1.7-5.1c0.6-0.7,1.1-0.7,1.7,0
		c0,4.7-0.9,6.9-2.8,6.8h-3.9c-1.9,0-2.8-0.8-2.8-2.5v-11.5C277.6,120.6,278.2,120.6,278.7,121.5z"/>
	<path class="st2" d="M311.7,104.1c0.6-0.9,1.1-0.9,1.7,0c-0.8,3.8-1.8,7-3.1,9.8v21.9c-0.6,1.1-1.1,1.1-1.7,0v-19.1
		c-1.3,2.1-2.6,3.7-3.9,4.8c-0.9,0.2-1.3-0.2-1.1-1.1C307.6,116.1,310.4,110.7,311.7,104.1z M323.2,104.1V117c4.7-3.2,8-6.1,9.8-8.7
		c0.9-0.4,1.4,0,1.4,1.1c-2.8,3.6-6.6,6.8-11.2,9.6v13.8c0,1.3,0.7,1.9,2.2,1.7h7c1.7,0.4,2.4-2.6,2.2-9c0.6-0.7,1.1-0.7,1.7,0
		c0.4,7.3-0.8,10.9-3.7,10.7H325c-2.4,0.2-3.7-0.8-3.7-2.8v-13.5c-3.6,2.1-6.2,3.4-7.9,3.9c-0.9,0-1.1-0.6-0.6-1.7
		c3-1.1,5.8-2.5,8.4-4.2v-13.8C322.1,103.2,322.7,103.2,323.2,104.1z"/>
</g>
</svg>
