<svg height="175.49" viewBox="0 0 707.58 175.49" width="707.58" xmlns="http://www.w3.org/2000/svg"><g fill="#fff" fill-rule="evenodd"><path d="m171.84 45.77a37 37 0 0 0 6.48 1.59 1.54 1.54 0 0 0 1.51-.79 72.84 72.84 0 0 1 5.61-8.48c3.71-4.55 7.19-6.47 9.79-6.47a5 5 0 0 1 5 5.1 2.58 2.58 0 0 1 -.14.54 1.83 1.83 0 0 1 -.82.67c-11.69 5.44-15.47 11.59-15.47 17.51 0 7.27 7.11 13.75 19.43 13.75 6.17 0 13.53-1.24 13.79-3.68a20.07 20.07 0 0 0 -.3-5.59c-.14-.71-.33-1-.64-1a1.28 1.28 0 0 0 -.64.24c-4.18 2.08-9.12 2.47-13.47 2.47-6 0-10.67-2.56-10.67-6.63 0-2.8 2.33-6.17 7.87-9.43a.59.59 0 0 1 .89.57 76 76 0 0 1 -1.06 8.1c0 .16-.08.32-.08.48 0 .4.32.64 1.18.64 6.09 0 6.33-.32 6.48-1.84.38-3.16.69-7.52.78-11.26a.61.61 0 0 1 .4-.55c5.57-2 11.28-3.82 16.84-5.54 2.29-.64 4.11-.4 4.11-1.59 0-1-3.72-7.2-4.74-7.2a1.14 1.14 0 0 0 -.48.16c-3 1.93-10.39 4.69-16 6.82a.54.54 0 0 1 -.72-.39c-1.34-4.92-4.23-7.95-8.94-7.95a16.51 16.51 0 0 0 -5.69 1.2c-.31.08-.55.24-.63.24h-.08c0-.08.16-.24.4-.56a58.34 58.34 0 0 0 3.63-5.63 2 2 0 0 1 1.5-1c4.81-.63 9.65-1.44 13.86-2.19.08 0 .63-.16.63-1.12-.24-1.68-.58-4.84-.82-5.56a.82.82 0 0 0 -.79-.64 3.22 3.22 0 0 1 -.39.08 67.46 67.46 0 0 1 -9.84 2.95.4.4 0 0 1 -.44-.57l.73-1.47c.79-1.52 3-3.15 3-4 0-1.6-7.17-2-8.43-2-.79 0-.92.58-1 1-.7 2.42-1.57 5-2.44 7.22a1 1 0 0 1 -.85.64c-1.51.12-3 .21-4.43.18a40.19 40.19 0 0 1 -9.1-1 1.07 1.07 0 0 0 -.91 0c-.37.24-.38 2.27-.26 3.26.22 1.83.51 3.35 1.92 3.66a28.89 28.89 0 0 0 6.16.4c1.22 0 2.43-.05 3.65-.11a.6.6 0 0 1 .55.9 153.05 153.05 0 0 1 -16.26 22.4 1 1 0 0 0 -.32.64c-.13.35.11.67.66.83z"/><path d="m303.94 70a22 22 0 0 1 2.67-6c.38-.48.5-.82.4-1.15s-.6-.47-.92-.47c-1.18.08-1.84.13-3.15.13-10.13 0-15-2.2-20.54-5a.6.6 0 0 1 -.12-1 100.56 100.56 0 0 0 7.91-8.38 6.7 6.7 0 0 1 3.14-2.6c.71-.29 1.34-.8 1.34-1.52 0-1-5.3-4.15-6.09-4.22-1.32-.1-1 1.15-2.58 1.15 0 0-7.11.24-10.35.24h-.4c.65-.88 1.23-.56 1.48-1.14.53-1.17-5.63-3.73-6.13-3.76s-.53.35-.69.59c-3.25 5.65-12.44 15.57-23.26 16.64-.35.06-.42.21-.44.29-.08.3-.1.5.27 1.09a39.22 39.22 0 0 0 3 4.29 1 1 0 0 0 .87.41c.23 0 9.67-1.74 14.91-7a.6.6 0 0 1 .9.09 29.33 29.33 0 0 0 3.84 4.4.62.62 0 0 1 0 .92c-5.31 4.51-13.85 6.44-21.92 7.37-.41.06-.75.06-.88.27s-.1.41.2.89c.95 1.21 2.63 3.3 3.85 4.73a1.53 1.53 0 0 0 1 .43c.31 0 13.95-1.36 23.44-9.63a.57.57 0 0 1 .68 0c6 3.9 14.5 7.38 26.36 8.4.65 0 .97 0 1.21-.46zm-27.51-17a.61.61 0 0 1 -.79 0 29.3 29.3 0 0 1 -5.17-5.34.85.85 0 0 1 -.06-1.11c.28-.34 1-.26 1-.26h3.4 6.75a.6.6 0 0 1 .45 1 66.91 66.91 0 0 1 -5.58 5.71z"/><path d="m308 13.35a7.61 7.61 0 0 0 -.36-2.14c-.64-2.35-1.64-3.14-2.64-3.66a5.79 5.79 0 0 0 -2.34-.55h-.66c-1.94.06-3.6 1.43-5.32 1.84a5.16 5.16 0 0 1 -1.28.25c-6.7.21-9 .06-15.07.06a23 23 0 0 1 .45-3.38c.67-2.22 1.53-2.06 1.53-3.1 0-.4-.24-.8-1-1a60.77 60.77 0 0 0 -8.44-1.67c-.64 0-.84-.11-1.07.09s0 .71.12 1.35a55.35 55.35 0 0 1 .7 7.68c-6.72 0-15.92.11-25.44-.72h-.4c-.39 0-.47.08-.47 3.6s.15 3.59.87 3.59c8.92-.4 14.46-.56 19.28-.64.08.88.08 1.68.08 2.48 0 8.15-1.29 13.17-12.79 17.21a.85.85 0 0 0 -.62.62c0 .29.32.53 1.05 1.19 1.25 1 2.07 1.72 3.81 3.07.46.34.86.79 1.37.79a2.69 2.69 0 0 0 1.35-.49c12.56-5.6 12.46-13.76 12.78-22.63a1.63 1.63 0 0 1 .69-1.2c.47-.32.87-.8.87-1.12l5.16-.07c0 2.8.07 11.74.07 12.94a2.16 2.16 0 0 1 -2.11 2.26 4 4 0 0 1 -2-.12l-.64-.15c-.65-.18-1.07-.11-1.32.29s0 1.09.46 1.71c1.06 1.48 2.33 3.15 3.05 4.17a1.31 1.31 0 0 0 1.14.7s8.34 0 8.34-6.82v-.64c-.08-1.6-.24-3.12-.24-4.4 0-.95-.08-4.23-.08-7a1.85 1.85 0 0 1 .53-1.45 6.06 6.06 0 0 0 .79-.73 2 2 0 0 0 .39-.9c9.74-.09 17.15.09 17.15.09 1.83-.04 2.26-.34 2.26-1.4z"/><path d="m296.72 18.59c-.32-.4-.4-.48-1.19-.48s-5.45 1.68-5.45 2.08c0 1.6 11.22 13.51 13.2 13.51a1.1 1.1 0 0 0 .47-.16 23 23 0 0 1 4.51-3.07c1.11-.59 1.87-.61 2-1.06s-.64-.74-.95-.9a34 34 0 0 1 -12.59-9.92z"/><path d="m241.61 28.77c1.3.88 3.78 2.59 5.13 3.6a1.48 1.48 0 0 0 1.1.45c1-.06 7.11-4.32 11.22-8.48a4.26 4.26 0 0 1 1.94-1.27c1.58-.32 2.37-1 2.37-1.6 0-1.36-6.24-4.16-7.11-4.16-.32 0-.39.16-.71.56-1.58 2-3.6 5.48-13.48 9.56-.31.16-.66.25-.81.49s-.15.58.35.85z"/><path d="m628.65 129.15c-.08 0-.24.09-.32.1-9.35 4.13-14.76 6.28-20 8.25l-.56-1.42s-1.32-3.5-3-8.19c4.22-1.44 8.77-2.89 16.37-4.91.32-.09.71-.36.69-.68 0-.16-1.77-7.52-3.15-7.45-.08 0-.15.09-.23.09-7.3 3.14-12 5-16 6.43a77 77 0 0 1 -3-9.89c-.26-2.19.22-3 .18-4.48 0-1.13-.17-1.14-9.86 1.23a1 1 0 0 0 -.76.75c-.14.51.44 1.22.87 2.11 1.81 3.63 3.38 7.52 5.43 12.68-4.14 1.43-9 3.06-17.72 5.38-.49.11-.8.21-.78.69s1.75 5.5 2.31 6.93c.1.4.43.46.75.45a1.06 1.06 0 0 0 .49-.11c8.32-3.6 13.42-5.48 17.48-6.91 1.79 4.85 3.12 8.5 3.12 8.5l.47 1.27c-5.57 2-10.75 3.81-21.77 7.06-.56.19-.88.29-.85.85.06 1.05 2.38 6.76 2.48 7a.66.66 0 0 0 .67.37 1.4 1.4 0 0 0 .56-.11c10.31-4.51 15.8-6.58 21.21-8.56 2.29 6.6 5.63 16.07 8 24 .18.48.27.55.59.54 1.54-.08 7.83-2.36 7.77-3.41a1.35 1.35 0 0 0 -.1-.48c-3.24-7.6-6.73-16.82-9.17-23.17 5.26-1.9 10.91-3.89 20.5-6.66.32-.1.63-.36.61-.68s-1.45-4.55-2.39-6.93a.93.93 0 0 0 -.89-.64z"/><path d="m339.93 16 2.45.65c.89.21 1.53.45 2.55.75s2.68.93 3.6 1.24a44.45 44.45 0 0 1 4.37 1.66.66.66 0 0 0 .69-.06c.37-.37.67-1.28 1.7-2.44a17.6 17.6 0 0 1 2-1.83c.66-.58 1.3-1.53-.52-2.85a49.87 49.87 0 0 0 -8.17-2.83c-1.6-.48-3.22-.93-4.6-1.29a29.13 29.13 0 0 0 -3.07-.82c-.45-.09-.56-.13-.77-.05-.55.2-1.07 1.76-1.72 3.7-.18.55-.45 1.92-.57 2.37a1.63 1.63 0 0 0 0 .93c.28.52 1.13.6 2.06.87z"/><path d="m372.58 58.91c-.05-.24-.22-.43-.66-.41a3.56 3.56 0 0 0 -1 .19 51 51 0 0 1 -7.63 1.75 24.12 24.12 0 0 1 -7.85.07l-1.14-.27a8.78 8.78 0 0 1 -3.1-1.1 3.28 3.28 0 0 1 -.73-.71 5.69 5.69 0 0 1 -.83-2.12 15.31 15.31 0 0 0 -2-5.35 5.74 5.74 0 0 0 -2.81-2.39l-.44-.15-.16-.08c-.2-.07-.35-.26-.23-.45 3.94-4.14 8.46-8.62 12.32-12.3 1.76-1.66 3.5-3.16 4.83-4.39.53-.46 1.73-1.13 1.73-2 0-1.1-4.09-5-5.31-5.1a1.15 1.15 0 0 0 -.47.11 8.6 8.6 0 0 1 -1.89.79l-.49.11c-4 .83-10 2-13.25 2.36-1.06.13-3.17.35-4.2.4-1.47.07-2.9.06-3.46 0s-1.27-.06-1.61-.08c-.53 0-1.94-.2-2.36-.25s-1 0-1.07.52a2.85 2.85 0 0 0 0 .66 16.46 16.46 0 0 0 1.6 5.47c.34.49.81.73 2.12.84a19.55 19.55 0 0 0 3.34-.15c1.15-.12 2.51-.35 3.75-.6 3.8-.77 7.93-2.25 10.45-2.78a1.56 1.56 0 0 1 .58-.06c.15 0 .3 0 .33.15s-.18.55-.79 1.27c-2.18 2.56-8.21 8.82-15.64 16.22-.9.87-2.38 2.36-3.28 3.22-3.63 3.53-6.66 6.34-8.81 8.8-.59.67-1.07 1.2-1.43 1.7a.47.47 0 0 0 -.08.56c.29.51 4.49 2.65 6.17 2.75.21 0 .31 0 .39-.09 1-1.59 2.36-2.68 11.15-11.54a2.29 2.29 0 0 0 .48-.33 2.93 2.93 0 0 1 2.57-.92 1.47 1.47 0 0 1 .65.35 2.72 2.72 0 0 1 .68 1.45c.25 1.13.35 2.74.58 4.93.69 6.54 5.85 8.09 12.65 8.1h.94a73.58 73.58 0 0 0 14-1.82c.85-.33 1.11-.55 1.23-1.1a15.82 15.82 0 0 0 .31-4.31 7 7 0 0 0 -.13-1.92z"/><path d="m419.53 30.1a31.71 31.71 0 0 0 -5.53.56h-.23c-.32 0-.4-.08-.4-.24s.16-.32.32-.48c5.45-5.28 11.29-10.8 13.66-13 .84-.77 2.19-.69 2-2.08-.18-1.18-5.73-5.13-6.91-5.29a2.65 2.65 0 0 0 -1.9.42c-2.37 1.36-13.63 3-20.82 3-1.1 0-2.13-.08-3-.16h-.48c-.55 0-.71.24-.71.72 0 1.44 1.82 6.24 2 6.48.39.64.55.8 1.11.8a87.28 87.28 0 0 0 17.62-3.52 3.53 3.53 0 0 1 .59-.16c.16 0 .18.07.18.07a.33.33 0 0 1 -.06.23c-1.28 2.45-18.95 18.53-29 26.16a.47.47 0 0 0 -.24.56c.21.85 5.44 4.84 5.85 5.07a.63.63 0 0 0 .8-.12c2.77-2.64 4.18-4.07 8.76-8.07a22.68 22.68 0 0 1 14.3-5c8 0 12.64 4.4 12.64 10 0 6.35-5.26 10.72-8.62 12.42a.6.6 0 0 1 -.86-.48c-.92-7.53-7.09-10.51-13-10.51-7.5 0-10.35 4.72-10.35 8.48 0 6.07 6.56 10.79 16 10.79 14.7 0 24.58-10.39 24.58-20.7-.04-8.2-6.52-15.95-18.3-15.95zm-6.3 30.2c-.13.19-.59.18-.59.18-4.8 0-8.36-2.09-8.36-4.32 0-.16 0-2.56 3.56-2.56 2.37 0 5.49 1.49 5.49 6.2a.89.89 0 0 1 -.1.5z"/><path d="m706.93 133.66h-.16c-9.23.72-13 1-31.67 1-4.46 0-11.75-.08-23-1h-.41c-.4 0-.56.4-.56 4.45 0 1.45.08 3 .08 4 0 .57.24.81.73.81h.16c6.89-.57 13.61-1 30.22-1 4.69 0 12.71.08 24.46 1 .49 0 .73-.24.73-.65.08-.65.08-1.86.08-3.15 0-1.78 0-3.64-.08-4.7-.01-.42-.09-.76-.58-.76z"/><path d="m463.78 48.29v1.56c0 .84.28 1.2.92 1.2h.3a20.17 20.17 0 0 1 3.1-.18 14.71 14.71 0 0 1 1.65.09h.09c.64 0 .91-.74.91-1.57v-1.29c0-.46 0-1.11 1.28-16.06.54-6.65 1.09-14.4 1.09-22.16 0-6.74-.09-7.41-1.09-7.39-.18 0-.36.07-.55.1a22.1 22.1 0 0 1 -4.33.41 27.39 27.39 0 0 1 -3.9-.25 7 7 0 0 0 -.9-.16c-.91 0-.91.92-.91 7.38 0 8.77.46 15.33 2.1 33.15.15 2.21.24 3.96.24 5.17z"/><path d="m467.34 56.41a6.58 6.58 0 0 0 -6.66 6.59 6.66 6.66 0 0 0 13.32 0 6.58 6.58 0 0 0 -6.66-6.59z"/><path d="m498.75 2.86c-2.19 0-2.63.49-3.11 1.62-.58 1.4-1.72 4.2-2.55 6.42a1.81 1.81 0 0 0 -.09.64c0 .46.19.65.55.65a1.81 1.81 0 0 0 .64-.09 19.48 19.48 0 0 1 5.29-.74c4.11 0 13.6 1 13.6 11 0 9.79-8.94 10.71-13.87 11.08-1.55.09-2.1.74-2.1 1.57a4.11 4.11 0 0 0 .18.92 36 36 0 0 1 1 8.77 28.81 28.81 0 0 1 -.33 5.4v.18a.73.73 0 0 0 .82.83h.27a23.12 23.12 0 0 1 2.88-.18c.91 0 1.6.13 2.42.13h.18a.84.84 0 0 0 .82-.92v-.18a18.63 18.63 0 0 1 -.22-2.95c0-5.35 1-5.91 3.2-6.37 8.22-1.64 14.67-6.76 14.67-18.2 0-12.56-13.66-19.58-24.25-19.58z"/><path d="m501.86 56.32a6.59 6.59 0 0 0 -6.67 6.55 6.67 6.67 0 0 0 13.33 0 6.58 6.58 0 0 0 -6.66-6.55z"/><path d="m372.72 134.72c-.13 2.43-.15 4.57-.11 7.56.06 3.81.43 7.1.57 9.8a.59.59 0 0 0 .61.57c7.74-.16 15.41-.4 23.31-.87.73 0 .9.24.9 5.34 0 2.91-.17 3.07-.73 3.07q-13.25-.74-26.49-.73-14.71 0-29.41 1c-.65 0-.89-.16-.89-2.83 0-6.07.32-6.17.73-6.15a4 4 0 0 1 .4.08c1.92.4 7.71 1.2 23 1.22a.64.64 0 0 0 .61-.58 95.15 95.15 0 0 0 .32-11.84 84.85 84.85 0 0 0 -.61-11.34.59.59 0 0 0 -.59-.53h-1.72c-4.37 0-8.2.1-15.65.67-.4 0-1-.08-1-.65 0-.81-.08-2.19-.08-3.56 0-4 .16-4 .65-4h.4c8.83.65 14.91.73 19.6.73 15.23 0 21-.4 25-.73.64 0 1 .09 1 4.13 0 1.38-.08 2.83-.16 3.56 0 .4-.49.57-.81.57-4.55-.34-9.54-.61-17.66-.69a.62.62 0 0 0 -.62.52 55.41 55.41 0 0 0 -.57 5.68z"/><path d="m557.34 128.23c-.15-.37-.26-.88-.79-1s-1 .53-1.25.93c-8.18 12.3-22.11 21.81-22.92 21.81-.17 0-.25-.08-.25-.81v-3.4c0-13.67.16-20.14 1.3-23.22.73-1.94 1.67-3.2 1.67-4 0-.49-.24-.73-.89-1a69.65 69.65 0 0 0 -9-1.61c-1.06-.11-1.25.17-1.35.4a5.09 5.09 0 0 0 .11 1.52 46 46 0 0 1 .73 8.88v1.29c0 7.77 0 22.25-.65 27.91a6.87 6.87 0 0 0 -.32 1.22c0 1.25 4.29 2.91 5.56 3.39a4.46 4.46 0 0 0 1.89.46c1.14 0 1-1.51 2-2.16 12.79-8.41 26.93-21.59 27-23.7a3.83 3.83 0 0 0 -.53-1.67c-1.05-2.26-1.65-3.57-2.31-5.24z"/><path d="m13.74 28.37v4.26 3.22c0 3.5-.06 7.71-.15 12.23-.15 6.56-.4 13.67-.85 20.12v.16c0 1.06.58 1.43 2.33 1.46.63 0 2.95-.13 3.74-.25a4.43 4.43 0 0 0 2.77-1.23l1.34-1.43a.92.92 0 0 1 .64-.37c2.62-.1 9.47-.15 14.82-.15 5.89 0 18 0 27.34.45 1.07 0 2 .2 2.49-.24s.14-1.92-.33-4.92-.72-3.32-1.82-3.8a2.47 2.47 0 0 0 -1.26-.09c-1.83.13-4.88 1.65-5.91 2a5.54 5.54 0 0 1 -1.43.26c-6.6.27-18.15.27-23.49.27-3.15 0-8.75 0-10.41 0s-2.17-.51-2.17-1.57c-.16-7.66-.21-16-.22-22.24v-7.89c0-.89.17-1.22.72-1.23l3.31-.06h5.91a.81.81 0 0 1 .82.83c0 6.6-.2 13.15-.58 22a1.09 1.09 0 0 0 0 .18c0 1 .46 1.4 3.4 1.4a12.87 12.87 0 0 0 4.25-.74.77.77 0 0 0 .5-.74l-.09-1.75c0-.37.1-.57.61-.57h.7 5 3a.5.5 0 0 1 .51.52c0 .72-.07 1.18-.07 1.63v.08c0 1.14 1.68 1.24 4.43 1.24a6.63 6.63 0 0 0 3.21-.74c.32-.2.55-.38.55-.7-.26-7.79-.52-14.92-.64-21.5a1 1 0 0 1 1-1c3.71.06 11.1.15 14.76.34 1.36 0 1.7-.3 1.73-1.37a13.68 13.68 0 0 0 -.36-2.13c-.49-2.79-.85-3.54-1.86-4.15a10 10 0 0 0 -2.35-.49c-.2 0-.48 0-.64 0-1.94.06-4.3 1.54-5.63 1.88a6 6 0 0 1 -1.36.25l-4.41.09c-.63 0-1-.24-1-1 0-1.36.19-8.58.25-10 0-.53.06-1 .11-1.52a5.85 5.85 0 0 1 .91-3.07c.19-.28.4-.57.65-.87a3 3 0 0 0 .83-1.59c0-1.82-8.65-2.6-10.17-2.66a.52.52 0 0 0 -.48.19c-.09.13-.09.36 0 1a127.64 127.64 0 0 1 .84 13.63v5a.85.85 0 0 1 -.87 1c-2.18.16-6.1.07-8.82.06a.67.67 0 0 1 -.67-.69c0-2.59.18-9.54.23-10.85 0-.72.06-1.34.1-1.91a5.29 5.29 0 0 1 1-3.28 6.68 6.68 0 0 1 .5-.74 3.16 3.16 0 0 0 .84-1.69c0-1.66-9-2.48-10.2-2.51h-.25a.4.4 0 0 0 -.3.39 1.48 1.48 0 0 0 0 .2.79.79 0 0 0 0 .17 91.53 91.53 0 0 1 .91 14.35v5.71c0 .53-.19.78-.67.78h-5.33c-1.32 0-2.31 0-3.95-.06-.46 0-.83-.11-.81-.72 0-5.42.07-7.82.51-10.31a8.42 8.42 0 0 1 .41-1.55 11.55 11.55 0 0 1 1.36-2.48.94.94 0 0 0 -.14-1.32c-.83-.8-5.43-1.45-9.6-1.87h-.23a.58.58 0 0 0 -.6.26.81.81 0 0 0 0 .59c0 .3.06.46.08.55.5 3 .76 7.34.77 15.92a.68.68 0 0 1 -.76.78c-3.6-.1-6.57-.29-10.84-.55h-.5c-.73 0-1.74.43-1.63 2.5v.56c.28 3 .9 3.85 2 3.85 4.18-.28 7.21-.44 10.88-.54a.8.8 0 0 1 .79.77zm26.26-1.06h8.5a1 1 0 0 1 1 1c0 4.32 0 8.62-.12 13.89a.67.67 0 0 1 -.66.66c-1.25 0-2.4 0-3.25 0-1.08 0-4 0-5.52-.08a.64.64 0 0 1 -.62-.64c0-2.87-.17-10.88-.2-14a.88.88 0 0 1 .87-.83z"/><path d="m156.23 42.85c-14.59-1.59-22.16-5-29.81-11.14-.46-.34-.31-.85.23-.81l10.74.24c0 .56-.07 1-.07 1.6 0 .8.63 1 3.23 1 1.19 0 2.45 0 3.56-.08a1 1 0 0 0 .95-1v-.08c-.48-6.56-.87-10-.87-14.47 0-4.88.08-8.23.47-14.63a.79.79 0 0 0 -.79-.8h-.15c-6.33.48-15.49.64-22.52.64-6.48 0-17.39-.08-23.31-.48-.56 0-.79.32-.79.64.47 6.8.55 9 .63 14.63a111 111 0 0 1 -.87 14.51c0 .64.63.8 3.79.8 3.71 0 3.87-.16 3.87-.88s-.08-.68-.08-1.48c2.48-.07 6.48-.08 10.25-.14a.5.5 0 0 1 .34.87c-6.76 7-16.45 11.06-28.34 13.68-.79.15-1.31.22-1.51.83s.2 1.11.83 1.74a49.9 49.9 0 0 0 3.86 3.44 2.73 2.73 0 0 0 2.33.68c.61-.07 7.43-1.85 16-6.95-.26 6.29-3 13.32-16 16.79a10.22 10.22 0 0 0 -2.06.63c-.4.24-.4.52 0 1.17 1.16 1.64 2.44 3.29 3.59 4.65a1.29 1.29 0 0 0 1 .48c1.11 0 19.84-3.75 20.55-23.42.08-2.39.43-2.82.93-3.61a4.33 4.33 0 0 0 .88-1.9.94.94 0 0 0 -.35-.78c1.85-1.67 3.38-3.33 4.62-4.48 1.29 1.12 2.65 2.29 4.11 3.47a.87.87 0 0 0 .08.4c.71 2.88.87 6 .87 17 0 3.11 0 6.39-.32 11.59 0 .71.48.79 3.95.79 2.85 0 4.11-.16 4.11-.71-.79-12.23-.79-14.71-.79-19.67a35.84 35.84 0 0 1 .16-4l1.42.78a54.91 54.91 0 0 0 16.22 5.61c.9.1 1.64.09 2-.6a53.07 53.07 0 0 1 2.64-4.68c.24-.47 1-1.23 1-1.39s-.26-.4-.58-.48zm-52.12-33.35a.6.6 0 0 1 .59-.59l11.72-.14a.74.74 0 0 1 .76.72c0 1.25.12 2.87.14 4.5a.6.6 0 0 1 -.6.6c-4.18 0-9.07-.07-12.09-.14a.6.6 0 0 1 -.58-.6c.01-1.85.04-3.52.06-4.35zm13.14 15.69a.6.6 0 0 1 -.6.59c-4.11 0-8.81-.07-11.81-.14a.61.61 0 0 1 -.58-.58l-.19-4.49a.6.6 0 0 1 .6-.62c3 0 7.83-.15 12.06-.16a.59.59 0 0 1 .59.6c-.01 1.66-.06 3.38-.07 4.8zm6.8-15.2c0-.48 0-.9.26-1.09s.51-.15.82-.16l11.94.17a.59.59 0 0 1 .58.58c0 .81.07 2.41.12 4.26a.59.59 0 0 1 -.57.62c-2.76.08-8.13.21-12.65.22a.59.59 0 0 1 -.55-.59c0-1.36 0-3 .05-4zm0 15.23c-.05-1.43-.05-3.22-.05-4.83a.6.6 0 0 1 .6-.6c4.57 0 9.94.14 12.64.16a.58.58 0 0 1 .59.59c0 1.27-.08 2.78-.14 4.44a.6.6 0 0 1 -.58.58c-2.72.08-7.93.21-12.39.22a.59.59 0 0 1 -.63-.56z"/><path d="m508.3 120.79c1.79.08 10.55.74 10.55 2.35 0 1-1.9 2.55-2.17 4.42-2 13.88-3.54 25.29-17.84 36.19a1.56 1.56 0 0 1 -1 .32 2.68 2.68 0 0 1 -1.33-.46c-1.36-.74-3.74-2.28-5.25-3.2-.31-.19-.74-.47-.74-.73s.12-.4.62-.77c14.27-9.55 16.57-22.72 17-32.54a14 14 0 0 0 -.56-4.53c-.1-.26-.24-.64 0-.92s.72-.13.72-.13z"/><path d="m435.6 112.06c0 .24.17.32.57.4 2.35.65 11.26 3.56 16 7a.61.61 0 0 0 .32.16c1 0 3.81-6.15 3.81-6.63 0-2.27-15.71-6.23-16.93-6.23-.93-.04-3.77 4.24-3.77 5.3z"/><path d="m451.28 143.92a3.24 3.24 0 0 0 -2.69-2.14.29.29 0 0 1 -.12-.51c5.06-4.25 9.28-8.62 13-12.39 1.29-1.37 2.91-1.7 2.91-2.59 0-1.21-5.1-5.66-6-5.66a1.67 1.67 0 0 0 -1 .41c-1.71 1-7.54 1.13-13.13 1.13-6.4 0-12.72-.16-19-.73-.81 0-1.06.08-1.06 2 0 5 .25 6.23 1.22 6.23h.16c4.13-.48 14.66-1.21 24.79-1.21.4 0 .73 0 .73.24 0 .08-.08.16-.25.33-5.67 5.58-12.84 14.74-34.38 21.53-.42.13-.72.25-.81.71s.35.85.68 1.2c1.18 1.26 2.68 2.76 3.81 3.9.49.48.81.64 1.14.64.55 0 9.86-3.06 20.68-10.67a.31.31 0 0 1 .48.23c.06 1.91.06 3.74.06 5.51 0 5.66-.16 13.75-.65 18v.16c0 .32.24.49.73.57 1 .08 2.35.16 3.73.16s2.75-.08 3.64-.16a.66.66 0 0 0 .73-.57c-.4-4.21-.73-12.3-.73-18.12a36.37 36.37 0 0 1 .41-5.74c.31-1.08 1.08-1.85.92-2.46z"/><path d="m458.43 140.74a1.6 1.6 0 0 0 -1 .55c-1.24 1.23-3.47 3.71-3.47 4.42 0 .24.25.32.57.48 2.43.89 11.84 4.8 17.51 9.57.06.05.2.19.34.19s.29-.13.4-.23c.37-.3 4.59-5.24 4.59-6.13 0-1.78-13.65-7.31-17.71-8.6a3.11 3.11 0 0 0 -1.23-.25z"/><path d="m233.26 117.46c1.15.12 2.15.22 2.69-.25s.15-2.59-.36-5.83-1-3.75-2-4.12a2.66 2.66 0 0 0 -1.35-.09c-2 .15-5.29 1.79-6.4 2.13a7 7 0 0 1 -1.55.28c-1.79.09-5.11.15-5.85.17-4.6.12-10.66.16-18.88.16-3.07 0-9.06-.14-12.55-.15-5.65 0-12.34-.2-21.78-.86-1 0-.86 1.48-.61 5.16 0 .28.06.53.08.76 0 0 .05.51.05.53.13 1.43.32 2.1 1.31 2.09 7.34-.34 13.37-.52 18.15-.61s10.12-.12 14.06-.12c2.66 0 6.23 0 8.92.06a44.33 44.33 0 0 1 4.61.25c1.09.15 1.23 1.16 1.28 1.94.2 3 .25 6 .25 18.21v7.15 8.27 6.15a36 36 0 0 1 -.25 5.25c-.4 2.37-3.14 3.08-7.24 3.32a31.1 31.1 0 0 1 -3.65.05 39.26 39.26 0 0 1 -4.28-.45c-.87-.13-1.46-.07-1.75.21s-.39.81 0 1.79c.25.74.93 2.36.93 2.36a13.73 13.73 0 0 0 1.5 2.72 3.34 3.34 0 0 0 1.62 1.17 6.41 6.41 0 0 0 1.48.26c.73.05 1.47.05 2 .06 10.54.13 17.42-1.25 17.43-10v-.71c-.15-3.23-.28-7.59-.35-11.67-.1-6-.12-12.18-.12-15.21 0-2.45.07-12.34.07-16.78 0-1.58 0-3.45.92-3.85s1.68-.26 3.25-.21l4.52.18c1.21.03 3.01.15 3.85.23z"/><path d="m308.51 118.74c-1.1.26-2.42.68-5.3 1.62-2.71.88-7 2.34-9 3a.58.58 0 0 0 -.4.55v3.36c.08 2.12 3.74 2 9.6 2.13 6.44.08 7.34-.39 7.37-5.42 0 0 0-.36 0-.69a.69.69 0 0 1 .44-.69.76.76 0 0 1 .82.17 55.8 55.8 0 0 0 5.37 4.1.77.77 0 0 1 .45.75c0 3.66-1.87 5.6-4.57 7a16.73 16.73 0 0 1 -5.18 1.61 49.43 49.43 0 0 1 -7.14.44c-11.76 0-14.3-2.65-14.3-7.64v-1.13c.14-1.91.3-9.55.31-14.69v-.72a38.23 38.23 0 0 0 -.43-7.24c-.09-.42-.13-.71-.2-1-.09-.52-.2-.82 0-1.12s.54-.22 1-.17a31.63 31.63 0 0 1 7.53 2c.71.36 1.14.74 1.08 1.11a1.74 1.74 0 0 1 -.32.68c-.27.39-.65.79-1 1.23a4 4 0 0 0 -.77 1.83c-.09.56-.09 1.16-.14 2-.06 1.07-.09 2.65-.15 4.4l.78.58c2.62-.93 5.68-2.18 8.39-3.44l.67-.31c1.61-.76 3.26-1.59 4.21-2.13a14.79 14.79 0 0 0 1.89-1.24 1.33 1.33 0 0 1 .71-.35c.3 0 .4.2.49.36a14.81 14.81 0 0 1 1 2.16 11.36 11.36 0 0 1 .72 3.66 15 15 0 0 1 0 1.69 1.06 1.06 0 0 1 -1.09 1.09 13.27 13.27 0 0 0 -2.84.46z"/><path d="m284.4 122.8c.13-.45-.48-2-1.58-3.94-2.19-3.83-6.14-8.7-7.1-8.9-.63-.13-2.93.66-4.2 1.35l-.24.12c-.32.21-.54.36-.6.55s.13.53.38.91c.14.2.95 1.45 2.17 3.3a.59.59 0 0 1 -.4.91c-2.7.35-6 .71-9.37 1.07-.46.07-.66-.14-.48-.62 1.49-3.81 1.89-4.86 2.79-6.71a11.62 11.62 0 0 1 1.75-2.72c.21-.22.43-.49.65-.71s.58-.55.89-.94a.85.85 0 0 0 .23-.54c0-.43-.32-.85-1-1.28-2-1.34-6.95-2.45-7.54-2.51-.05 0-.07 0-.08 0a.47.47 0 0 0 -.37.17 1.47 1.47 0 0 0 -.12.79c0 .27 0 .54-.06.83-.33 3.79-1.87 8.94-3.71 13.92l-.58 1.09c-.73.06-1.83.16-3.4.23-1.18 0-2.64.07-4.31 0-.32 0-.5.07-.53.36a2.78 2.78 0 0 0 0 .57 6.38 6.38 0 0 0 .14.71c.47 1.78 2.52 6.38 3.51 6.38.61 0 1.26-.7 2.21-1h.15c1.59-.46 18.44-3.19 22.55-4a.59.59 0 0 1 .6.26 17.52 17.52 0 0 1 1 1.61c.18.31.32.62.46.89a.86.86 0 0 0 .62.52 6.81 6.81 0 0 0 2.39-.79c1.23-.5 3.03-1.36 3.18-1.88z"/><path d="m279.32 129.68a1.78 1.78 0 0 0 -1.56-.4c-.75.05-2.41.11-2.44.17-4.07.27-4.86.25-8.29.25s-7.32-.11-9.56-.27c-.85-.05-2.17-.2-2.73-.18-.84 0-1.17.55-1.13 1.38v.72c.5 5.69.3 13.16.3 15.42 0 12.67-.26 20.25-.45 23.55a33.78 33.78 0 0 1 -.4 4.05c0 .45.22.7 3.54.83 2.16.08 3.43.14 3.56-.59.18 0 .12-13.83.12-14.61 0-.31 0-1.13 0-1.69a.58.58 0 0 1 .58-.59l4.68-.05c1.23 0 4.87 0 6.79.06a.58.58 0 0 1 .57.58v7c0 2-1.15 2.56-3.42 2.65a8.36 8.36 0 0 1 -2.31-.1c-.34-.06-.6-.1-.8-.15-.53-.14-.91.27-.74.87a15.56 15.56 0 0 0 .76 2.1 12.85 12.85 0 0 0 1.34 2.53c.66 1.11 1.83 1 2.66.93 7.36-.32 9.28-4.07 9.28-8.5 0-4.28-.52-11-.52-17.36 0-10.42 0-13 .38-16.44.1-1.16.18-1.84-.21-2.16zm-18.83 7.17a.58.58 0 0 1 .56-.58c1.08 0 3.46-.06 5.13-.06s4.7 0 5.93.06a.6.6 0 0 1 .58.59l.05 4.68a.57.57 0 0 1 -.56.59c-1.82.05-4.89.05-6 .05s-3.44 0-5.19-.05a.58.58 0 0 1 -.57-.59c.05-1.79.06-3.74.07-4.69zm-.21 11.71v-1a.57.57 0 0 1 .59-.57h11.34a.58.58 0 0 1 .58.57v2.11c0 .49 0 1.38.07 2.86a.6.6 0 0 1 -.57.6c-1.82.07-4.94.13-6 .13-.91 0-3.56 0-5.44-.06a.58.58 0 0 1 -.57-.59z"/><path d="m318.37 163.22a71.42 71.42 0 0 1 -6.06-4.56.74.74 0 0 0 -.82-.17.7.7 0 0 0 -.43.69c0 .33 0 .7 0 .69a17.79 17.79 0 0 1 -.15 2.41c0 .14 0 .26-.07.41-.87 4.14-2.66 4.82-9.74 4.47-6.65-.33-7.27-.51-7.32-2.52 0-1.55 0-4.19 0-5.22a.58.58 0 0 1 .4-.55l1.26-.43c3.45-1.3 7.36-2.61 8.84-3.19 1-.39 2.3-.85 3.47-1.19a14.44 14.44 0 0 1 3.68-.7c1-.1 2.38-.18 2.39-.84 0-2.22-1.74-5.76-2.91-7.06-.26-.28-.66-.7-1-.7s-.69.41-.85.6c-1.39 1.7-8.32 5.07-14.56 7.51a.59.59 0 0 1 -.8-.57c.06-1.92.09-3.6.15-4.73v-.2c.05-.79.05-1.19.14-1.76a4.14 4.14 0 0 1 .77-1.82c.34-.45.71-.85 1-1.24a1.53 1.53 0 0 0 .31-.68c.06-.37-.37-.74-1.08-1.11a31.51 31.51 0 0 0 -7.53-2c-.46 0-.81-.1-1 .18s-.1.59 0 1.11c.07.29.11.57.2 1a40.79 40.79 0 0 1 .43 7.5v-.73 1.46c0 5.51-.16 14.34-.31 16.26v1.16c0 5.74 3.17 7.81 14.16 7.81 6.68 0 13.69-.56 16.55-4.58a5.14 5.14 0 0 0 .32-.49c.1-.16.18-.35.27-.53l.16-.36a8.1 8.1 0 0 0 .51-2.18 17.56 17.56 0 0 0 .12-2.36.77.77 0 0 0 -.5-.79z"/><path d="m12.44 154.48c.55 0 .83.25.83.77v1.85c-.08 5.65-.26 7.63-.72 17.11v.36a.74.74 0 0 0 .69.75 21.22 21.22 0 0 0 2.43.13c.15 0 3.18 0 3.87-.16 0 0 .28 0 .51-.08.52-.12.84-.43.84-.86-.3-8.12-.44-13-.49-17.56 0-.68 0-1 0-1.66s.2-1 .78-1c3.81 0 12.31-.07 24.37-.07h7.83a.57.57 0 0 1 .58.57c0 2.08 0 4.66-.08 6.63 0 1.05 0 2.06-.1 3-.13 1.85-1.4 2.65-3.13 2.9a16.37 16.37 0 0 1 -1.63.16 15.17 15.17 0 0 1 -2.44-.18c-.32-.08-.73-.15-.87-.17a.45.45 0 0 0 -.5.29 1.84 1.84 0 0 0 .11.71 48 48 0 0 0 2.12 5.67 2.68 2.68 0 0 0 1.62 1.36 7.15 7.15 0 0 0 2 .06c6.64-.54 10.22-4.27 10.22-9.25v-.69c-.15-2.43-.25-4.74-.31-7.3 0-.9-.07-.67-.07-1.62v-1.6a.59.59 0 0 1 .58-.57c.59-.05 2 0 2 0 3.64.05 7 .14 10.62.33 1.34 0 1.67-.3 1.71-1.34a18 18 0 0 0 -.36-2.33c-.48-2.73-.94-3.08-1.82-3.63a3.39 3.39 0 0 0 -1.63-.48h-.62c-1.91.06-4.23 1.28-5.53 1.62a12.59 12.59 0 0 1 -2.17.38c-1.1.07-1 .08-1.3.08-.58 0-.7 0-1 0a.57.57 0 0 1 -.56-.58c0-2.16-.08-4.33-.09-6.07 0-2.77 0-5.12 0-7.13a59.09 59.09 0 0 1 .37-8.35c.17-1.06.39-2 .47-3a16.79 16.79 0 0 0 0-1.89s0-.23 0-.24c0-.64-.32-.84-1-.88a27.19 27.19 0 0 0 -3.48 0c-1.53.07-2.41.26-3.73.33-.42 0-1.24.08-1.66.09-3.8.09-8.43.12-11.12.12a.55.55 0 0 1 -.59-.6c0-1.5.07-2.93.07-4.22a1.61 1.61 0 0 1 .61-1.37 2.28 2.28 0 0 0 .76-1.27s3.29-.09 4.82-.06c4.08 0 9.75-.3 18.25.14.93.08 1.74.08 2.56.11a3.48 3.48 0 0 0 1.94-.31c.47-.27.47-1.15.34-2.08a23.79 23.79 0 0 0 -.88-3.5 3.31 3.31 0 0 0 -2-2.19 4.86 4.86 0 0 0 -4.27.24 22.17 22.17 0 0 1 -6.3 1.49c-1.81.15-3 .14-4.56.15-5.34 0-10.7.1-18.61.1-6.29 0-13.24-.11-26.37-.8h-.35c-.5.09-.51.75-.32 3.88 0 .57.1 1 .15 1.42v.06c.15 1.81.45 1.95 1.28 1.94 8.45-.42 13.94-.6 18.3-.68h6.3c1 0 1.33.4 1.33 1.07.07 1.84 0 2.65.06 4.45v1.51a.57.57 0 0 1 -.56.57c-2.53 0-6.35-.06-9.4-.16l-2.45-.15c-.68 0-7.18-.45-7.61-.45s-.6.16-.6.57v.59c.41 5.84.79 13.64.85 18.2v2.69 4.37 1.11a.58.58 0 0 1 -.6.59m20.38-.47a.57.57 0 0 1 -.58.57c-3.13 0-7.8 0-11.64-.06a.57.57 0 0 1 -.55-.57v-7.13a.57.57 0 0 1 .56-.57c2.81-.06 8.11-.12 11.71-.13a.59.59 0 0 1 .58.59c-.01 2.78-.07 5.3-.08 7.3zm-.49-13.14c-3.53 0-8.78-.07-11.64-.13a.58.58 0 0 1 -.56-.58c0-1.28-.05-4.13-.05-4 0 .38 0-1.71 0-2.76a.57.57 0 0 1 .58-.59h5.2l6.47-.06a.58.58 0 0 1 .59.59v1.67 5.33a.56.56 0 0 1 -.59.57zm7.38-7.56a.58.58 0 0 1 .59-.59c3.57 0 6.73 0 8.84.06l3.85.07a.58.58 0 0 1 .57.58v6.75a.59.59 0 0 1 -.58.59c-2.26 0-8.36.13-12.73.14a.58.58 0 0 1 -.58-.59zm13.33 21.25c-4.09.06-9 .06-12.67.06a.57.57 0 0 1 -.58-.57c0-2.08-.07-4.56-.08-7.29a.59.59 0 0 1 .58-.6c4.37 0 10.48.12 12.74.14a.58.58 0 0 1 .57.58v7.1a.58.58 0 0 1 -.57.58z"/><path d="m14.41 148.35c-3.78-.11-6.68-.28-11.16-.55h-.53c-.76 0-1.82.46-1.71 2.62v.6c.3 3.15 1 4 2.07 4 4.39-.29 7.5-.51 11.36-.62"/><path d="m142.33 171.56c1 0 2.95 0 4.56.05 2.79.1 4.65.21 7.48.37 1.44 0 1.81-.33 1.84-1.46a21.48 21.48 0 0 0 -.39-2.8c-.45-2.52-1-2.92-2-3.58a4.16 4.16 0 0 0 -1.75-.43c-.21 0-.51 0-.67 0a27.89 27.89 0 0 0 -5.91 1.33 14.07 14.07 0 0 1 -2.35.4c-1 .07-1.3.08-2 .09-3.95.18-6.65.31-9.84.34a35.3 35.3 0 0 1 -4.64-.09.7.7 0 0 1 -.65-.66c0-3.77 0-8.38 0-13 0-.55 0-.76 0-1.32a1 1 0 0 1 1.07-1.16c2.93-.18 5.45-.2 8.61-.24 2.8.1 5.52.25 8.35.4 1.44 0 1.8-.49 1.84-1.62a18.35 18.35 0 0 0 -.38-2.51c-.45-2.52-1-2.92-2-3.57a4 4 0 0 0 -1.75-.44h-.67a27.89 27.89 0 0 0 -6.08 1.34 13.16 13.16 0 0 1 -2.34.4c-1 .07-1.31.08-2.05.09h-1.29a12.3 12.3 0 0 1 -2.74-.24c-.57-.21-.71-.48-.71-1.36l.13-10.89c0-.33.34-.8 1.14-.88 2.21-.23 6.25-.31 10.64-.31 2.46.06 5.46.28 8 .41 1.44 0 1.8-.32 1.84-1.45a18.46 18.46 0 0 0 -.39-2.51c-.52-3-1.17-3.13-1.94-3.73a4.22 4.22 0 0 0 -1.77-.52c-.2 0-.5 0-.67 0-2.05.07-4.58 1.19-6 1.56a13.8 13.8 0 0 1 -2.34.4c-.75.06-1.73.09-2.53.07-2.49 0-2.67 0-4.81 0-.86 0-1.12-.48-1.12-1.21 0-.36 0-6.76 0-7 0-1.68.06-2.84.12-3.69.14-1.93.25-2.41.88-3.2.31-.38.78-.74 1.07-1.06.44-.49.65-.79.67-1.14a1.57 1.57 0 0 0 -.34-.79c-1.27-1.37-7.61-2.46-10.09-2.59a1 1 0 0 0 -.32 0 .39.39 0 0 0 -.27.31.7.7 0 0 0 0 .21v.31a85.85 85.85 0 0 1 .83 12.69c0 .9.06 3.07.08 5.91 0 .39-.24 1.23-1.07 1.23-1.56.09-2.52.08-3.89.08s-3.88-.08-6.62-.15l.1-.33c.47-1.07 1.83-4.85 1.92-5a9.13 9.13 0 0 1 1.31-2.37 6 6 0 0 1 .89-.94 13.19 13.19 0 0 1 1.3-.86 1.33 1.33 0 0 0 .46-.89c0-.51-.47-1.09-1.33-1.45a61.06 61.06 0 0 0 -8-2.9.76.76 0 0 0 -.55.13.46.46 0 0 0 -.17.42c0 2.82-1.79 10.06-5.23 17.4-2.78 6-6.53 12-10.91 15.91a.81.81 0 0 0 -.36.52c0 .19.2.33.73.46l.94.21c2.06.39 3.29.69 5.54 1.28a2.34 2.34 0 0 0 1.1.16c1.14-.32 4.82-5.66 8.72-13.65.23-.48.46-1 .69-1.51a.59.59 0 0 1 .52-.34h6 5a8.3 8.3 0 0 1 2.27.13c.26.06.6.32.6.58 0 3.7.08 7 .08 11.19 0 .5 0 .85-.37 1.14a2.93 2.93 0 0 1 -1.89.48c-.46 0-1.66 0-2.51 0-3.54-.11-6.35-.29-12-.69-1.13 0-1.25 1.18-1.18 2.47 0 .5.06 1.3.13 2.31.21 1.74.33 2.38 1.21 2.49a17.38 17.38 0 0 0 1.91 0h.07c6.22-.43 8.78-.59 13.39-.59.7 0 1.29.33 1.29.78v1.92c0 4.39-.11 9.2-.11 12.84 0 .46-.47.66-1 .71-1.77.15-3.32 0-4.85 0s-3.62-.14-5.39-.18c-4.3-.08-9.82-.29-16.75-.74-1 0-1.74.51-1.51 3.72.21 3 .5 3.39 1.22 3.73a20.3 20.3 0 0 0 3.13 0h1.22c9-.41 14.78-.5 20.42-.55h7.14c3.78 0 5.9-.11 9.74-.16h5c1.32-.19 4.38-.22 5.3-.22z"/><path d="m638.34 105.64c-.13.11-.25.23-.37.35-6.54 6.42-4.86 15.77-4.86 15.77l.11.36c.15.3.36.16.63-.16 2.21-2.65 10.34-9.09 4.49-16.32z"/><path d="m628.39 119.46c-.25 0-.33-.3-.48-.8 0 0-.39-1.43-3.42-4.18-7-6.37-3.83-10.08-3.13-12.28a16.28 16.28 0 0 0 .78-3.47s8.14 5.74 7.85 11.08a42.68 42.68 0 0 1 -1.18 8.47c-.14.53-.18 1.18-.42 1.18z"/><path d="m200.91 130.54c0-1.11.11-2.39.21-3.09s.2-1.19.32-1.81a2.09 2.09 0 0 0 0-.25c0-.46-.2-.66-.63-.85l-.46-.08c-2.82 0-3.65.18-5.46.25l-1.6.06c-.76 0-1.55.06-2.33.06h-1.7c-2.13 0-5.31 0-7.31-.08-1.82-.15-3.17-.26-4.74-.44l-1.13-.1c-.55 0-.72.43-.76.86a11.18 11.18 0 0 0 .26 1.59c.19 2.06.2 4.11.24 7v5.06c0 2.23 0 6.28-.5 12.7l-.07 1c0 .94.38 1.12 3.21 1.13h.54c3.49 0 3.71-.28 3.85-1.31 0-.1 0-.23 0-.33s0-.3 0-.55c0-.56.46-.73 1.1-.73s2.78 0 4.51 0 2.93 0 4.48.07c.48 0 .81.23.83.71v.55s0 .23 0 .33c.13 1 .35 1.28 3.85 1.31h.48c2.83 0 3.21-.19 3.21-1.13 0 0-.07-1-.07-1-.4-5.29-.48-8.95-.5-11.32v-1.37-.19c0-1.11 0-3.55.06-6.09.08-.69.09-1.33.11-1.96zm-13.11 14.54c-1.28 0-2.77-.08-4.44-.05a.61.61 0 0 1 -.61-.6c0-3.57-.06-6.05.09-6.87 0-1.47.07-5.12.09-6.53a.59.59 0 0 1 .57-.58h5.32s3.93 0 4.78.07a.58.58 0 0 1 .55.58c0 1.48.07 5.68.07 7.07 0 .9 0 3.39-.09 6.3a.59.59 0 0 1 -.58.57z"/></g></svg>