<svg xmlns="http://www.w3.org/2000/svg" xmlns:xlink="http://www.w3.org/1999/xlink" version="1.1" baseProfile="full" width="340" height="300" style="user-select: none; position: absolute; left: 0px; top: 0px;">
<g>
<rect width="340" height="300" x="0" y="0" id="0" style="fill: transparent;">
</rect>
</g>
<g>
<path d="M 136 30.0926 A 5 5 0 0 1 141.1852 25.0961 A 140 140 0 0 1 272.8781 135.5995 A 5 5 0 0 1 268.8578 141.5736 L 160.1228 160.7465 A 5 5 0 0 1 154.6036 157.658 A 20 20 0 0 0 140 145.4041 A 5 5 0 0 1 136 140.5051 Z" fill="#87b7cd" fill-opacity="1" stroke="none">
</path>
<path d="M 248.16 145.2232 A 5 5 0 0 1 253.9857 149.4958 A 119 119 0 0 1 206.8069 260.6419 A 5 5 0 0 1 199.6866 259.4193 L 149.6974 185.3072 A 5 5 0 0 1 150.274 179.009 A 20 20 0 0 0 155.9928 165.5364 A 5 5 0 0 1 160.1228 160.7465 Z" fill="#1c6b96" fill-opacity="1" stroke="none">
</path>
<path d="M 191.2894 246.97 A 5 5 0 0 1 189.7273 254.047 A 104 104 0 0 1 101.9607 263.2717 A 5 5 0 0 1 98.9613 256.6741 L 126.824 187.7113 A 5 5 0 0 1 132.368 184.6674 A 20 20 0 0 0 143.6417 183.4825 A 5 5 0 0 1 149.6974 185.3072 Z" fill="#61a0a8" fill-opacity="1" stroke="none">
</path>
<path d="M 105.7147 239.9587 A 5 5 0 0 1 98.9232 242.5971 A 86 86 0 0 1 59.7441 204.7623 A 5 5 0 0 1 62.1439 197.8828 L 113.6228 174.963 A 5 5 0 0 1 119.7252 176.6246 A 20 20 0 0 0 124.9505 181.6706 A 5 5 0 0 1 126.824 187.7113 Z" fill="#d48265" fill-opacity="1" stroke="none">
</path>
<path d="M 67.6365 195.4374 A 5 5 0 0 1 60.9097 192.5943 A 80 80 0 0 1 57.8001 148.1248 A 5 5 0 0 1 64.0658 144.3732 L 112.454 158.2483 A 5 5 0 0 1 116.0606 163.4437 A 20 20 0 0 0 116.4713 169.3162 A 5 5 0 0 1 113.6228 174.963 Z" fill="#91c7ae" fill-opacity="1" stroke="none">
</path>
<path d="M 78.5249 148.5193 A 5 5 0 0 1 75.2284 141.9391 A 65 65 0 0 1 87.1078 122.1683 A 5 5 0 0 1 94.4655 121.9897 L 118.9844 147.3798 A 5 5 0 0 1 119.5102 153.6825 A 20 20 0 0 0 118.2657 155.7536 A 5 5 0 0 1 112.454 158.2483 Z" fill="#749f83" fill-opacity="1" stroke="none">
</path>
<path d="M 100.7431 128.4904 A 5 5 0 0 1 101.2359 121.0972 A 56 56 0 0 1 111.78 114.5085 A 5 5 0 0 1 118.641 117.3065 L 127.6223 141.9823 A 5 5 0 0 1 125.539 147.9539 A 20 20 0 0 0 125.2649 148.1252 A 5 5 0 0 1 118.9844 147.3798 Z" fill="#ca8622" fill-opacity="1" stroke="none">
</path>
<path d="M 120.7044 122.9757 A 5 5 0 0 1 124.2254 116.4062 A 50 50 0 0 1 130.4444 115.3096 A 5 5 0 0 1 136 120.2786 L 136 141.1649 A 4.2028 4.2028 0 0 1 127.8479 142.6024 Z" fill="#bda29a" fill-opacity="1" stroke="none">
</path>
<path d="M -5 -5 L 5 -5 L 5 5 L -5 5 L -5 -5" fill="rgba(0,0,0,0)" fill-opacity="1" stroke="#ccc" stroke-width="0" paint-order="fill" stroke-opacity="1" stroke-dasharray="" stroke-linecap="butt" stroke-miterlimit="10" transform="matrix(1,0,0,1,170,295)">
</path>
</g>
</svg>