<?xml version="1.0" standalone="no"?><!DOCTYPE svg PUBLIC "-//W3C//DTD SVG 1.1//EN" "http://www.w3.org/Graphics/SVG/1.1/DTD/svg11.dtd"><svg t="1619275528537" class="icon" viewBox="0 0 1024 1024" version="1.1" xmlns="http://www.w3.org/2000/svg" p-id="2741" xmlns:xlink="http://www.w3.org/1999/xlink" width="200" height="200"><defs><style type="text/css"></style></defs><path d="M512 1008.941176C237.537882 1008.941176 15.058824 786.462118 15.058824 512S237.537882 15.058824 512 15.058824 1008.941176 237.537882 1008.941176 512 786.462118 1008.941176 512 1008.941176z m0-30.117647c257.807059 0 466.823529-209.016471 466.823529-466.823529 0-257.807059-209.016471-466.823529-466.823529-466.823529C254.192941 45.176471 45.176471 254.192941 45.176471 512c0 257.807059 209.016471 466.823529 466.823529 466.823529z" p-id="2742"></path><path d="M357.797647 446.945882h51.2a144.865882 144.865882 0 0 1 3.915294-38.249411c3.011765-12.649412 7.920941-24.003765 14.757647-34.032942 6.836706-10.029176 15.570824-18.160941 26.202353-24.395294 10.631529-6.234353 23.401412-9.336471 38.249412-9.33647 11.233882 0 21.895529 1.807059 31.924706 5.421176 10.029176 3.614118 18.763294 8.824471 26.202353 15.661177 7.439059 6.836706 13.342118 14.968471 17.769412 24.395294 4.427294 9.426824 6.625882 19.968 6.625882 31.623529 0 14.848-2.319059 27.919059-6.927059 39.152941-4.608 11.233882-11.444706 21.684706-20.48 31.322353-9.035294 9.637647-20.389647 19.184941-34.032941 28.611765a1192.658824 1192.658824 0 0 1-47.585882 31.021176c-14.848 8.824471-29.123765 18.281412-42.767059 28.310589-13.643294 10.029176-25.901176 21.684706-36.74353 34.93647-10.842353 13.251765-19.787294 28.822588-26.804706 46.682353-7.017412 17.859765-11.535059 39.454118-13.552941 64.752941h278.889412v-45.17647h-219.256471c2.409412-13.251765 7.529412-24.997647 15.36-35.237647 7.830588-10.24 17.257412-19.787294 28.310589-28.611765 11.053176-8.824471 23.190588-17.167059 36.442353-24.997647 13.251765-7.830588 26.503529-15.751529 39.755294-23.792941 13.251765-8.432941 26.112-17.257412 38.550588-26.50353 12.438588-9.246118 23.491765-19.576471 33.129412-31.021176 9.637647-11.444706 17.377882-24.395294 23.190588-38.851765 5.812706-14.456471 8.734118-31.111529 8.734118-49.995294 0-20.088471-3.523765-37.737412-10.541177-53.007059a109.537882 109.537882 0 0 0-28.611765-38.249411c-12.047059-10.24-26.202353-18.070588-42.465882-23.491765a163.719529 163.719529 0 0 0-52.103529-8.131765c-22.497882 0-42.556235 3.824941-60.235294 11.444706a122.970353 122.970353 0 0 0-44.272942 31.623529 127.638588 127.638588 0 0 0-26.202353 47.887059 172.694588 172.694588 0 0 0-6.625882 60.235294z" p-id="2743"></path></svg>