<?xml version="1.0" standalone="no"?><!DOCTYPE svg PUBLIC "-//W3C//DTD SVG 1.1//EN" "http://www.w3.org/Graphics/SVG/1.1/DTD/svg11.dtd"><svg t="1619269260451" class="icon" viewBox="0 0 1024 1024" version="1.1" xmlns="http://www.w3.org/2000/svg" p-id="3996" xmlns:xlink="http://www.w3.org/1999/xlink" width="200" height="200"><defs><style type="text/css"></style></defs><path d="M654.784 470.208c33.696 23.104 33.6 60.512 0 83.584l-249.888 171.2c-33.696 23.104-60.992 9.088-60.992-31.2V330.176c0-40.288 27.296-54.304 60.992-31.2l249.888 171.2z m-271.168-141.408c-6.016-4.096-7.2-4.384-4.608-5.696s2.112-0.192 2.112 7.104v363.488c0 7.296 0.512 8.512-2.112 7.104-2.688-1.408-1.504-1.6 4.608-5.696l249.888-171.104c12.512-8.608 12.512-15.392 0-23.904l-249.888-171.296z" fill="" p-id="3997"></path></svg>