<?xml version="1.0" standalone="no"?><!DOCTYPE svg PUBLIC "-//W3C//DTD SVG 1.1//EN" "http://www.w3.org/Graphics/SVG/1.1/DTD/svg11.dtd"><svg t="1619413849579" class="icon" viewBox="0 0 1024 1024" version="1.1" xmlns="http://www.w3.org/2000/svg" p-id="2302" width="48" height="48" xmlns:xlink="http://www.w3.org/1999/xlink"><defs><style type="text/css"></style></defs><path d="M1002.355564 495.955622 531.444866 25.042879l0 0c-11.165275-11.159138-28.996982-11.064005-40.057918-0.010229-0.433722 0.43986-0.853123 0.887903-1.254112 1.350267-0.339613 0.304833-0.673088 0.619895-1.002471 0.948256L18.219668 498.244938l40.047689 40.046666L511.432274 85.126687l450.875601 450.875601L1002.355564 495.955622zM531.444866 25.042879" p-id="2303"></path><path d="M448.596785 773.624713 448.596785 638.000632l136.392301 0L584.989087 773.131661l56.635513 0L641.6246 617.650473c0-2.031538-0.21993-4.016021-0.635239-5.932991 0.052169-0.667973 0.07672-1.350267 0.07672-2.031538l0 0c0-15.181296-12.801962-28.315711-28.586787-28.315711L420.44372 581.370233c-15.887118 0-28.586787 12.677165-28.586787 28.315711 0 1.383001 0.105362 2.75168 0.308925 4.091718-0.132981 1.092489-0.203563 2.213619-0.203563 3.343956l0 156.503095L448.596785 773.624713zM641.067103 609.685944" p-id="2304"></path><path d="M855.437319 535.219747 855.437319 535.219747l-56.631422 0 0 377.027254L219.507638 912.247001 219.507638 535.665744l-56.63449 0 0 404.167618c0 2.318981 0.285397 4.573518 0.820389 6.740082 2.775208 12.475648 13.96401 22.304977 27.341882 22.304977l636.540369 0c14.789514 0 28.00474-12.677165 28.00474-28.314688 0-0.940072-0.048078-1.868892-0.138095-2.789529l0-402.553436L855.437319 535.22077M855.437319 535.219747" p-id="2305"></path></svg>