<?xml version="1.0" standalone="no"?><!DOCTYPE svg PUBLIC "-//W3C//DTD SVG 1.1//EN" "http://www.w3.org/Graphics/SVG/1.1/DTD/svg11.dtd"><svg t="1619271337733" class="icon" viewBox="0 0 1024 1024" version="1.1" xmlns="http://www.w3.org/2000/svg" p-id="7736" xmlns:xlink="http://www.w3.org/1999/xlink" width="200" height="200"><defs><style type="text/css"></style></defs><path d="M502.68890326 544.58883953c13.96664542 0 23.27774279 9.31109674 23.27774216 23.27774279s-9.31109674 23.27774279-23.27774217 23.27774216-23.27774279-9.31109674-23.27774278-23.27774215 9.31109674-23.27774279 23.27774279-23.2777428z m4.65554805-69.83322775c0 9.31109674 4.65554869 13.96664542 9.31109738 23.27774279l-23.27774279 9.31109674c-13.96664542-9.31109674-18.6221941-23.27774279-18.62219412-37.24438759 0-55.86658233 79.14432448-60.52213037 79.14432449-107.07761595 0-23.27774279-18.6221941-41.89993628-51.21103301-41.89993627-32.58883953 0-55.86658233 13.96664542-69.83322775 37.24438759l-23.27774279-23.27774217c23.27774279-27.93329084 55.86658233-46.55548495 97.76651859-46.55548495 55.86658233 0 88.45542187 32.58883953 88.45542186 69.83322712-4.65554869 65.17767906-88.45542187 69.83322774-88.45542186 116.38871269z m288.64400773-162.94419765c0-46.55548495-37.24438822-83.79987317-83.79987317-83.79987317H307.15586608C260.60038049 228.01154096 223.35599291 265.25592919 223.35599291 311.81141412v279.33291036c0 46.55548495 37.24438822 83.79987317 83.79987317 83.79987318h270.02181298l97.7665186 83.79987316v-83.79987316h41.89993626c46.55548495 0 83.79987317-37.24438822 83.79987318-83.79987318v-279.33291036z m-79.14432512 405.03271979V837.88839531l-153.63310028-121.04426139H307.15586608C241.97818702 716.84413392 186.11160469 660.97755223 186.11160469 586.48877579V311.81141412C186.11160469 241.97818702 241.97818702 186.11160469 307.15586608 186.11160469h409.68826784C782.02181298 186.11160469 837.88839531 241.97818702 837.88839531 311.81141412v274.67736168c0 74.48877579-55.86658233 130.35535812-121.04426139 130.35535812z" p-id="7737"></path></svg>