<?xml version="1.0" standalone="no"?><!DOCTYPE svg PUBLIC "-//W3C//DTD SVG 1.1//EN" "http://www.w3.org/Graphics/SVG/1.1/DTD/svg11.dtd"><svg t="1619414118427" class="icon" viewBox="0 0 1024 1024" version="1.1" xmlns="http://www.w3.org/2000/svg" p-id="6193" xmlns:xlink="http://www.w3.org/1999/xlink" width="48" height="48"><defs><style type="text/css"></style></defs><path d="M810.667 213.333A42.667 42.667 0 0 1 853.333 256v512a42.667 42.667 0 0 1-42.666 42.667H213.333A42.667 42.667 0 0 1 170.667 768V256a42.667 42.667 0 0 1 42.666-42.667h597.334z m0 42.667H213.333v512h597.334V256zM704 618.667a21.333 21.333 0 1 1 0 42.666H533.333a21.333 21.333 0 1 1 0-42.666H704zM304.896 376.064a21.333 21.333 0 0 1 30.208 0l120.661 120.661a21.333 21.333 0 0 1 0 30.166L335.104 647.595a21.333 21.333 0 1 1-30.208-30.208l105.6-105.558-105.6-105.642a21.333 21.333 0 0 1 0-30.166z" fill="#6E6E6E" p-id="6194"></path></svg>