<?xml version="1.0" standalone="no"?><!DOCTYPE svg PUBLIC "-//W3C//DTD SVG 1.1//EN" "http://www.w3.org/Graphics/SVG/1.1/DTD/svg11.dtd"><svg t="1619271453052" class="icon" viewBox="0 0 1024 1024" version="1.1" xmlns="http://www.w3.org/2000/svg" p-id="8462" xmlns:xlink="http://www.w3.org/1999/xlink" width="200" height="200"><defs><style type="text/css"></style></defs><path d="M512 1003.52c272.384 0 491.52-219.136 491.52-491.52S784.384 20.48 512 20.48 20.48 239.616 20.48 512s219.136 491.52 491.52 491.52z m0 20.48C229.376 1024 0 794.624 0 512S229.376 0 512 0s512 229.376 512 512-229.376 512-512 512z" fill="#EEEEEE" p-id="8463"></path><path d="M434.176 782.336c12.288-12.288 24.576-26.624 34.816-38.912 45.056-49.152 90.112-96.256 135.168-145.408 38.912-43.008 40.96-94.208 8.192-141.312 0-2.048-2.048-2.048-2.048-4.096 49.152-8.192 98.304-18.432 147.456-26.624 22.528-4.096 22.528-4.096 28.672 18.432 26.624 94.208 8.192 180.224-55.296 256-49.152 59.392-112.64 90.112-188.416 96.256-32.768 4.096-86.016-2.048-108.544-14.336zM245.76 520.192c0-77.824 28.672-143.36 83.968-198.656 8.192-8.192 8.192-8.192 12.288 4.096 22.528 75.776 45.056 151.552 71.68 227.328 12.288 38.912 38.912 65.536 79.872 75.776 10.24 2.048 10.24 6.144 4.096 12.288-24.576 40.96-51.2 83.968-75.776 124.928-4.096 8.192-8.192 8.192-16.384 4.096-88.064-43.008-139.264-112.64-157.696-208.896-2.048-12.288-2.048-26.624-2.048-40.96zM638.976 409.6h-116.736c-34.816 0-63.488 12.288-86.016 38.912-4.096 6.144-8.192 6.144-12.288 0-24.576-45.056-51.2-90.112-75.776-135.168-4.096-6.144 0-6.144 4.096-10.24 32.768-26.624 69.632-43.008 112.64-51.2 77.824-16.384 151.552 0 217.088 45.056 36.864 26.624 65.536 61.44 86.016 102.4 6.144 10.24 6.144 10.24-6.144 10.24h-122.88z m-202.752 114.688c-2.048-45.056 36.864-86.016 81.92-88.064 49.152-2.048 88.064 34.816 90.112 81.92 4.096 49.152-38.912 90.112-83.968 90.112-49.152 0-88.064-36.864-88.064-83.968z" fill="#888888" p-id="8464"></path></svg>