<?xml version="1.0" standalone="no"?><!DOCTYPE svg PUBLIC "-//W3C//DTD SVG 1.1//EN" "http://www.w3.org/Graphics/SVG/1.1/DTD/svg11.dtd"><svg t="1619271749666" class="icon" viewBox="0 0 1024 1024" version="1.1" xmlns="http://www.w3.org/2000/svg" p-id="10639" xmlns:xlink="http://www.w3.org/1999/xlink" width="200" height="200"><defs><style type="text/css"></style></defs><path d="M910.08 142.336v739.328c0 48.128-106.496 90.112-256 105.984V248.32c149.504-16.384 256-57.344 256-105.984z" fill="#D8DADF" p-id="10640"></path><path d="M511.744 0C306.432 0 85.248 44.544 85.248 142.336v739.328C85.248 979.456 306.432 1024 511.744 1024c205.824 0 427.008-44.544 426.496-142.336v-227.328-256-256C938.24 44.544 717.056 0 511.744 0z m369.664 654.336c0 25.6-125.952 85.504-369.664 85.504s-369.664-59.904-369.664-85.504V474.112c78.848 45.056 227.84 66.56 369.664 66.56 141.824 0 290.816-20.992 369.664-66.048v179.712z m0-256c0 25.6-125.952 85.504-369.664 85.504S142.08 423.936 142.08 398.336V218.112c78.848 45.056 227.84 66.56 369.664 66.56 141.824 0 290.816-20.992 369.664-66.56v180.224zM511.744 56.832c244.224 0 369.664 59.904 369.664 85.504s-125.952 85.504-369.664 85.504-369.664-59.904-369.664-85.504 125.44-85.504 369.664-85.504z m0 910.336c-243.712 0-369.664-59.904-369.664-85.504v-151.552c78.848 45.056 227.84 66.56 369.664 66.56 141.824 0 290.816-20.992 369.664-66.048v151.04c0 25.6-125.952 85.504-369.664 85.504z" fill="#7E8595" p-id="10641"></path></svg>