<?xml version="1.0" standalone="no"?><!DOCTYPE svg PUBLIC "-//W3C//DTD SVG 1.1//EN" "http://www.w3.org/Graphics/SVG/1.1/DTD/svg11.dtd"><svg t="1619414071923" class="icon" viewBox="0 0 1079 1024" version="1.1" xmlns="http://www.w3.org/2000/svg" p-id="4801" xmlns:xlink="http://www.w3.org/1999/xlink" width="50.578125" height="48"><defs><style type="text/css"></style></defs><path d="M511.460105 512.899824l439.114236-143.491974 72.405858 23.455419v42.591681l-511.520094 170.54669L0 435.514938v-42.591681l64.067487-23.515407L511.460105 512.899824z m0 198.921148l439.114236-143.491974 72.405858 23.455419v42.591681l-511.520094 170.546691L0 634.436087v-42.591682l64.067487-23.515407 447.392618 143.491974z m0 198.921149l439.114236-143.551963 72.405858 23.515407v42.591682l-511.520094 170.54669L0 833.237258v-42.591681l64.067487-23.515407 447.392618 143.551962z" p-id="4802"></path><path d="M1022.980199 171.506503v42.591681L511.460105 384.584886 0 214.158172v-42.591681L511.460105 1.019801l511.520094 170.486702z m-59.988283 42.591681v-42.591681h45.77106l7.078617 21.29584-7.078617 21.295841h-45.77106z" p-id="4803"></path></svg>