<?xml version="1.0" standalone="no"?><!DOCTYPE svg PUBLIC "-//W3C//DTD SVG 1.1//EN" "http://www.w3.org/Graphics/SVG/1.1/DTD/svg11.dtd"><svg t="1619271546176" class="icon" viewBox="0 0 1024 1024" version="1.1" xmlns="http://www.w3.org/2000/svg" p-id="9239" xmlns:xlink="http://www.w3.org/1999/xlink" width="200" height="200"><defs><style type="text/css"></style></defs><path d="M0 0h1024v1024H0z" fill="#FFFFFF" fill-opacity="0" p-id="9240"></path><path d="M512 970.99776l512-201.90208v-106.3936L512 460.8 0 662.70208v106.3936z" fill="#497BEC" p-id="9241"></path><path d="M10.24 762.13248v-92.4672l501.76-197.85728 501.76 197.85728v92.4672L512 959.98976z" fill="#FFFFFF" p-id="9242"></path><path d="M512 867.59424l501.76-197.85728v92.39552L512 959.98976 10.24 762.13248v-92.39552z" fill="#D6E0F6" p-id="9243"></path><path d="M436.67456 710.63552L440.32 710.656c70.6048 0 128-20.09088 128-48.128 0-28.03712-57.3952-48.128-128-48.128-70.61504 0-128 20.09088-128 48.128 0 27.55584 55.42912 47.43168 124.35456 48.10752z m7.18848-10.24L440.32 700.416c-65.1264 0-117.76-18.432-117.76-37.888 0-19.456 52.6336-37.888 117.76-37.888s117.76 18.432 117.76 37.888c0 19.10784-50.7392 37.2224-114.21696 37.86752z" fill="#497BEC" p-id="9244"></path><path d="M366.592 662.528a73.728 24.576 0 1 0 147.456 0 73.728 24.576 0 1 0-147.456 0Z" fill="#DBE5FB" p-id="9245"></path><path d="M293.98016 242.7392c10.98752-17.408 26.20416-30.81216 44.47232-39.20896l3.46112-1.51552 62.07488-25.16992 4.43392-1.65888c28.29312-9.85088 61.2864-8.0384 94.65856 5.61152 67.75808 27.72992 122.2656 98.38592 134.7072 171.90912 1.87392 0.67584 3.7376 1.39264 5.61152 2.1504 65.50528 26.80832 113.89952 103.0144 108.57472 171.3152-2.78528 35.7376-19.968 63.83616-47.09376 78.10048l-2.6624 1.3312-2.16064 1.00352-64.74752 26.29632-1.8432 0.68608-3.03104 1.024c-21.44256 6.79936-46.01856 5.4272-71.04512-4.25984L251.66848 504.4736C192.68608 480.3584 149.16608 411.8016 153.9584 350.3104c2.62144-33.56672 19.33312-59.6992 45.48608-72.0896l2.56-1.15712 64.80896-26.22464 1.45408-0.512a82.08384 82.08384 0 0 1 20.1728-4.07552l3.52256-0.2048 2.01728-3.30752z" fill="#497BEC" p-id="9246"></path><path d="M499.2 190.27968c-31.8976-13.056-62.19776-14.1824-87.3472-5.44768l-2.99008 1.09568-61.85984 25.06752-4.34176 1.87392c-18.98496 8.74496-34.44736 23.552-44.62592 43.40736a75.28448 75.28448 0 0 0-23.38816 2.77504l-3.09248 0.9728-1.30048 0.45056-63.73376 25.8048-2.78528 1.23904c-22.04672 10.496-37.1712 32.8192-39.56736 63.5904-4.44416 57.00608 36.46464 121.42592 91.37152 143.89248l307.73248 125.88032c23.2448 8.99072 45.33248 9.8816 63.97952 3.9936l2.7648-0.9216 1.66912-0.6144 64.512-26.2144 1.5872-0.73728 2.42688-1.2288c23.1936-12.24704 38.97344-36.63872 41.56416-69.7856 4.9664-63.7952-40.8064-135.8848-102.25664-161.03424a127.04768 127.04768 0 0 0-10.9056-3.8912c-9.65632-71.15776-62.18752-142.66368-129.40288-170.16832z" fill="#D6E0F6" p-id="9247"></path><path d="M438.5792 214.85568c67.2256 27.50464 119.7568 99.0208 129.41312 170.15808 3.60448 1.10592 7.23968 2.4064 10.9056 3.90144 61.44 25.1392 107.22304 97.23904 102.25664 161.03424-4.9152 62.96576-57.43616 94.3104-117.88288 70.93248L255.5392 495.0016C200.63232 472.53504 159.72352 408.1152 164.16768 351.10912c4.44416-57.00608 52.56192-85.01248 107.4688-62.54592 4.90496 2.00704 9.70752 4.352 14.36672 6.99392 10.38336-75.58144 76.97408-111.63648 152.576-80.70144z" fill="#FFFFFF" p-id="9248"></path><path d="M435.2 576.16384v86.1184a5.12 5.12 0 0 0 10.24 0v-86.1184a5.12 5.12 0 0 0-10.24 0zM655.36 266.24a5.12 5.12 0 0 1 5.03808 4.1984l0.08192 0.9216v45.1584a5.12 5.12 0 0 1-10.15808 0.9216l-0.08192-0.9216V271.36a5.12 5.12 0 0 1 5.12-5.12zM307.2 140.96384a5.12 5.12 0 0 1 5.03808 4.1984l0.08192 0.9216v27.87328a5.12 5.12 0 0 1-10.15808 0.9216l-0.08192-0.9216v-27.87328a5.12 5.12 0 0 1 5.12-5.12zM501.76 102.4a5.12 5.12 0 0 1 5.03808 4.1984l0.08192 0.9216v45.1584a5.12 5.12 0 0 1-10.15808 0.9216l-0.08192-0.9216V107.52A5.12 5.12 0 0 1 501.76 102.4zM307.2 40.96c7.92576 0 14.4384 3.59424 19.12832 10.51648 4.34176 6.42048 6.47168 14.40768 6.47168 23.9104 0 9.39008-2.12992 17.38752-6.4 23.7056-4.68992 6.94272-11.29472 10.61888-19.2 10.61888-7.95648 0-14.4896-3.65568-19.17952-10.58816-4.32128-6.25664-6.42048-14.2336-6.42048-23.73632 0-9.6256 2.0992-17.58208 6.4512-23.86944C292.6592 44.56448 299.18208 40.96 307.2 40.96z m0 10.24c-4.53632 0-7.8848 1.8432-10.67008 6.05184-3.1232 4.5056-4.68992 10.46528-4.68992 18.13504 0 7.56736 1.56672 13.5168 4.62848 17.96096 2.8672 4.21888 6.26688 6.12352 10.73152 6.12352 4.42368 0 7.8848-1.93536 10.72128-6.11328 3.04128-4.5056 4.63872-10.50624 4.63872-17.9712 0-7.5776-1.60768-13.568-4.7104-18.16576C315.0336 53.06368 311.66464 51.2 307.2 51.2zM634.5728 351.36512l48.51712-19.70176 47.22688 27.3408v96.17408l30.80192-12.4928 58.2656 24.6272 33.05472 203.6736-259.57376 103.5264-50.45248-35.98336 12.16512-211.968 79.99488-32.50176z" fill="#497BEC" p-id="9249"></path><path d="M682.2912 343.04l-37.4784 15.22688V500.9408l-80.384 32.65536L552.96 733.47072l41.30816 29.46048 246.75328-98.4064-30.8224-189.98272-49.152-20.7872-40.97024 16.62976v-105.472z" fill="#FFFFFF" p-id="9250"></path><path d="M761.0368 453.76512l49.152 20.77696-90.112 35.18464v-39.33184l40.96-16.62976z m-81.92-72.87808V525.7216l-72.96 28.50816-11.88864 208.70144L552.96 733.47072l11.4688-199.86432 80.384-32.63488V358.26688L682.2912 343.04l37.7856 21.8624-40.96 15.9744z" fill="#D7E3FA" p-id="9251"></path><path d="M787.08736 631.36768l-8.77568 60.6208 19.3024-7.7312zM666.3168 648.17152l-9.35936 91.0848 18.7392-7.49568z" fill="#497BEC" p-id="9252"></path></svg>