<?xml version="1.0" standalone="no"?><!DOCTYPE svg PUBLIC "-//W3C//DTD SVG 1.1//EN" "http://www.w3.org/Graphics/SVG/1.1/DTD/svg11.dtd"><svg t="1619269453895" class="icon" viewBox="0 0 1024 1024" version="1.1" xmlns="http://www.w3.org/2000/svg" p-id="6311" xmlns:xlink="http://www.w3.org/1999/xlink" width="200" height="200"><defs><style type="text/css"></style></defs><path d="M512 817.521A305.521 305.521 0 1 1 817.521 512 305.521 305.521 0 0 1 512 817.521z m0-577.434A271.913 271.913 0 1 0 783.913 512 272.219 272.219 0 0 0 512 240.087z m0 0" p-id="6312"></path><path d="M716.089 732.892a16.193 16.193 0 0 1-11.61-4.888L295.997 319.522a16.62 16.62 0 0 1 23.525-23.525l408.481 408.481a16.804 16.804 0 0 1-11.61 28.413z m0 0" p-id="6313"></path></svg>