<?xml version="1.0" standalone="no"?><!DOCTYPE svg PUBLIC "-//W3C//DTD SVG 1.1//EN" "http://www.w3.org/Graphics/SVG/1.1/DTD/svg11.dtd"><svg t="1619413997073" class="icon" viewBox="0 0 1024 1024" version="1.1" xmlns="http://www.w3.org/2000/svg" p-id="4010" xmlns:xlink="http://www.w3.org/1999/xlink" width="48" height="48"><defs><style type="text/css"></style></defs><path d="M793.6 153.6c0-6.4-6.4-6.4-12.8-6.4L678.4 128c-6.4 0-19.2 6.4-19.2 12.8S665.6 160 672 160l76.8 12.8c-38.4 32-128 89.6-256 147.2C345.6 384 192 422.4 192 422.4v12.8s166.4-38.4 307.2-96C620.8 288 723.2 230.4 768 185.6l-19.2 76.8c0 6.4 0 19.2 12.8 19.2 6.4 0 19.2-6.4 19.2-12.8L800 166.4c0-6.4 0-12.8-6.4-12.8zM224 672h96v224h-96V672zM384 608h96v288h-96V608zM544 512h96v384h-96V512zM704 448h96v448h-96V448z" fill="" p-id="4011"></path></svg>